{
.appVersion = "3260";
.formatVersion = 3;
DisplayStrings = (
"HOOHHHO
MMOOMM
hhhooohoho"
);
date = "2024-08-27 21:17:18 +0000";
familyName = Cromwell_Revival_002;
fontMaster = (
{
id = m01;
metricValues = (
{
over = 16;
pos = 800;
},
{
over = 16;
pos = 700;
},
{
over = 16;
pos = 500;
},
{
over = -16;
},
{
over = -16;
pos = -200;
},
{
}
);
name = Regular;
userData = {
GSCornerRadius = 15;
};
}
);
glyphs = (
{
glyphname = A;
lastChange = "2024-09-17 22:18:03 +0000";
layers = (
{
guides = (
{
angle = 270;
pos = (-55,9);
}
);
layerId = m01;
shapes = (
{
closed = 1;
nodes = (
(237,296,o),
(259,299,o),
(298,299,cs),
(484,299,l),
(375,537,ls),
(371,547,o),
(347,547,o),
(343,537,cs),
(249,323,ls)
);
},
{
closed = 1;
nodes = (
(140,70,l),
(145,2,o),
(225,59,o),
(225,33,cs),
(225,0,l),
(31,0,l),
(18,0,o),
(12,9,o),
(12,19,cs),
(12,47,o),
(50,40,o),
(75,70,c),
(354,687,ls),
(358,695,o),
(367,710,o),
(379,710,cs),
(392,710,o),
(402,694,o),
(405,687,cs),
(696,53,l),
(728,53,l),
(728,0,l),
(519,0,l),
(519,63,l),
(565,63,o),
(593,72,o),
(580,98,cs),
(509,241,l),
(238,241,l),
(219,241,o),
(210,224,o),
(202,206,cs)
);
}
);
width = 740;
}
);
unicode = 65;
},
{
glyphname = B;
lastChange = "2024-09-17 22:20:02 +0000";
layers = (
{
layerId = m01;
shapes = (
{
closed = 1;
nodes = (
(165,428,o),
(176,414,o),
(189,414,c),
(252,414,o),
(423,412,o),
(423,535,cs),
(423,636,o),
(297,649,o),
(195,649,c),
(180,649,o),
(165,643,o),
(165,635,c),
(165,440,l)
);
},
{
closed = 1;
nodes = (
(166,62,o),
(192,48,o),
(212,48,c),
(369,48,o),
(462,71,o),
(462,225,cs),
(462,336,o),
(320,372,o),
(190,369,c),
(181,369,o),
(166,361,o),
(166,352,c),
(166,80,l)
);
},
{
closed = 1;
nodes = (
(38,0,l),
(25,0,o),
(19,9,o),
(19,19,cs),
(19,47,o),
(46,40,o),
(71,70,c),
(71,603,l),
(71,629,o),
(53,647,o),
(16,648,c),
(16,698,l),
(260,698,ls),
(380,698,o),
(516,651,o),
(516,535,cs),
(516,461,o),
(452,411,o),
(415,402,cs),
(407,400,o),
(407,396,o),
(415,395,c),
(457,385,o),
(567,323,o),
(567,225,cs),
(567,86,o),
(509,0,o),
(232,0,c)
);
}
);
width = 583;
}
);
unicode = 66;
},
{
glyphname = C;
lastChange = "2024-09-17 22:18:30 +0000";
layers = (
{
guides = (
{
angle = 270;
pos = (597,366);
}
);
layerId = m01;
shapes = (
{
closed = 1;
nodes = (
(431,-7,o),
(542,6,o),
(595,51,cs),
(628,79,o),
(619,131,o),
(619,166,cs),
(619,206,o),
(574,207,o),
(574,182,cs),
(574,100,o),
(473,51,o),
(366,51,cs),
(188,51,o),
(108,216,o),
(108,366,cs),
(108,549,o),
(261,657,o),
(384,657,cs),
(468,657,o),
(538,602,o),
(538,509,cs),
(538,489,o),
(587,490,o),
(587,510,cs),
(587,510,o),
(592,671,o),
(592,671,cs),
(592,679,o),
(588,681,o),
(583,681,cs),
(567,681,o),
(536,659,o),
(527,666,cs),
(496,688,o),
(442,710,o),
(382,710,cs),
(224,710,o),
(10,624,o),
(10,366,cs),
(10,116,o),
(174,-10,o),
(369,-9,c)
);
}
);
width = 636;
}
);
unicode = 67;
},
{
glyphname = D;
lastChange = "2024-09-17 21:08:39 +0000";
layers = (
{
guides = (
{
pos = (1167,350);
}
);
layerId = m01;
shapes = (
{
closed = 1;
nodes = (
(174,77,o),
(175,47,o),
(202,47,cs),
(529,47,o),
(588,161,o),
(584,350,cs),
(581,513,o),
(529,655,o),
(213,645,cs),
(181,644,o),
(174,619,o),
(174,603,cs),
(174,101,l)
);
},
{
closed = 1;
nodes = (
(31,0,l),
(18,0,o),
(12,9,o),
(12,19,cs),
(12,47,o),
(59,40,o),
(84,70,c),
(84,603,l),
(84,629,o),
(56,647,o),
(19,648,c),
(19,698,l),
(319,698,ls),
(553,698,o),
(691,505,o),
(691,350,cs),
(691,205,o),
(613,0,o),
(337,0,cs)
);
}
);
width = 701;
}
);
unicode = 68;
},
{
glyphname = E;
lastChange = "2024-09-17 22:30:30 +0000";
layers = (
{
layerId = m01;
shapes = (
{
closed = 1;
nodes = (
(174,77,o),
(182,54,o),
(209,54,cs),
(376,54,ls),
(465,54,o),
(514,60,o),
(514,134,cs),
(514,155,o),
(522,170,o),
(537,170,cs),
(574,170,l),
(576,100,o),
(575,0,o),
(545,0,cs),
(31,0,ls),
(18,0,o),
(12,9,o),
(12,19,cs),
(12,47,o),
(84,31,o),
(84,70,cs),
(84,603,ls),
(84,629,o),
(56,647,o),
(19,648,c),
(19,700,l),
(525,700,ls),
(541,700,o),
(555,686,o),
(555,673,cs),
(555,539,ls),
(555,526,o),
(553,517,o),
(538,517,cs),
(488,517,o),
(543,635,o),
(449,635,cs),
(213,635,ls),
(181,635,o),
(174,619,o),
(174,603,cs),
(174,371,l),
(387,371,ls),
(444,371,o),
(463,397,o),
(463,432,cs),
(463,447,o),
(458,463,o),
(483,463,cs),
(505,463,o),
(503,447,o),
(503,438,cs),
(503,244,l),
(503,231,o),
(501,222,o),
(486,222,cs),
(439,222,o),
(500,318,o),
(387,318,cs),
(174,318,l),
(174,101,ls)
);
}
);
width = 587;
}
);
unicode = 69;
},
{
glyphname = F;
lastChange = "2024-09-17 21:24:49 +0000";
layers = (
{
layerId = m01;
shapes = (
{
closed = 1;
nodes = (
(403,371,o),
(422,397,o),
(422,432,cs),
(422,447,o),
(417,463,o),
(442,463,cs),
(464,463,o),
(462,447,o),
(462,438,cs),
(462,244,l),
(462,231,o),
(460,222,o),
(445,222,cs),
(398,222,o),
(459,318,o),
(346,318,cs),
(213,318,l),
(213,101,l),
(213,22,o),
(314,66,o),
(314,33,cs),
(314,0,l),
(70,0,ls),
(57,0,o),
(51,9,o),
(51,19,cs),
(51,47,o),
(98,40,o),
(123,70,c),
(123,603,l),
(123,629,o),
(95,647,o),
(58,648,c),
(58,700,l),
(564,700,ls),
(580,700,o),
(594,686,o),
(594,673,cs),
(594,539,ls),
(594,526,o),
(592,517,o),
(577,517,cs),
(527,517,o),
(582,635,o),
(488,635,cs),
(252,635,l),
(220,634,o),
(213,619,o),
(213,603,cs),
(213,402,l),
(213,372,o),
(224,371,o),
(244,371,c),
(346,371,ls)
);
}
);
width = 600;
}
);
unicode = 70;
},
{
glyphname = G;
lastChange = "2024-09-17 22:20:29 +0000";
layers = (
{
guides = (
{
angle = 180;
pos = (-40,346);
}
);
layerId = m01;
shapes = (
{
closed = 1;
nodes = (
(628,341,o),
(687,280,o),
(687,327,cs),
(687,342,o),
(678,344,o),
(665,344,cs),
(471,344,ls),
(462,344,o),
(446,346,o),
(446,324,cs),
(446,299,o),
(462,304,o),
(477,304,cs),
(512,304,o),
(554,285,o),
(554,228,cs),
(554,142,o),
(554,122,o),
(554,92,cs),
(554,56,o),
(438,60,o),
(400,60,c),
(233,60,o),
(108,186,o),
(108,355,cs),
(108,535,o),
(286,657,o),
(394,657,cs),
(478,657,o),
(548,602,o),
(548,509,cs),
(548,489,o),
(597,490,o),
(597,510,cs),
(597,510,o),
(602,671,o),
(602,671,cs),
(602,679,o),
(598,681,o),
(593,681,cs),
(577,681,o),
(546,659,o),
(537,666,cs),
(506,688,o),
(452,710,o),
(392,710,cs),
(165,710,o),
(10,533,o),
(10,355,cs),
(10,122,o),
(168,-12,o),
(395,-12,cs),
(606,-12,o),
(587,20,o),
(609,20,cs),
(631,20,o),
(628,31,o),
(628,72,cs),
(628,228,ls)
);
}
);
width = 694;
}
);
unicode = 71;
},
{
glyphname = H;
lastChange = "2024-09-24 17:58:32 +0000";
layers = (
{
layerId = m01;
shapes = (
{
closed = 1;
nodes = (
(162,338,o),
(173,339,o),
(193,339,cs),
(586,339,l),
(606,339,o),
(617,338,o),
(617,308,cs),
(617,101,l),
(617,22,o),
(516,66,o),
(516,33,cs),
(516,0,l),
(760,0,ls),
(773,0,o),
(779,9,o),
(779,19,cs),
(779,47,o),
(732,40,o),
(707,70,c),
(707,603,l),
(707,629,o),
(745,647,o),
(792,648,c),
(792,700,l),
(544,700,l),
(544,655,l),
(578,655,ls),
(610,655,o),
(617,639,o),
(617,623,cs),
(617,432,l),
(617,402,o),
(606,401,o),
(586,401,c),
(193,401,ls),
(173,401,o),
(162,402,o),
(162,432,c),
(162,623,ls),
(162,639,o),
(169,655,o),
(201,655,cs),
(245,655,l),
(245,700,l),
(7,700,l),
(7,648,l),
(44,647,o),
(72,629,o),
(72,603,c),
(72,70,l),
(47,40,o),
(0,47,o),
(0,19,cs),
(0,9,o),
(6,0,o),
(19,0,cs),
(263,0,l),
(263,33,ls),
(263,66,o),
(162,22,o),
(162,101,c),
(162,308,ls)
);
}
);
width = 792;
}
);
unicode = 72;
},
{
glyphname = I;
lastChange = "2024-09-17 21:33:30 +0000";
layers = (
{
layerId = m01;
shapes = (
{
closed = 1;
nodes = (
(217,623,ls),
(217,639,o),
(224,655,o),
(256,655,cs),
(300,655,l),
(300,700,l),
(22,700,l),
(22,668,l),
(90,668,o),
(127,647,o),
(127,603,c),
(127,70,l),
(127,33,o),
(25,77,o),
(25,19,cs),
(25,9,o),
(31,0,o),
(44,0,cs),
(318,0,l),
(318,33,ls),
(318,66,o),
(217,22,o),
(217,101,c)
);
}
);
width = 340;
}
);
unicode = 73;
},
{
glyphname = J;
lastChange = "2024-09-19 15:43:17 +0000";
layers = (
{
layerId = m01;
shapes = (
{
closed = 1;
nodes = (
(223,605,l),
(223,669,o),
(205,668,o),
(137,668,c),
(137,700,l),
(405,700,l),
(405,655,l),
(361,655,ls),
(329,655,o),
(317,639,o),
(317,623,cs),
(324,25,l),
(328,-94,o),
(238,-221,o),
(107,-218,c),
(48,-218,o),
(0,-180,o),
(0,-147,c),
(0,-122,o),
(23,-79,o),
(64,-79,cs),
(95,-79,o),
(124,-101,o),
(124,-127,cs),
(124,-175,o),
(223,-165,o),
(223,25,c)
);
}
);
width = 380;
}
);
unicode = 74;
},
{
glyphname = K;
lastChange = "2024-09-24 18:00:37 +0000";
layers = (
{
guides = (
{
pos = (953,396);
}
);
layerId = m01;
shapes = (
{
closed = 1;
nodes = (
(173,366,o),
(165,366,o),
(165,357,cs),
(165,101,ls),
(165,22,o),
(266,66,o),
(266,33,cs),
(266,0,l),
(22,0,ls),
(9,0,o),
(3,9,o),
(3,19,cs),
(3,47,o),
(75,31,o),
(75,70,cs),
(75,603,l),
(75,657,o),
(38,668,o),
(0,668,c),
(0,700,l),
(248,700,l),
(248,655,l),
(204,655,ls),
(172,655,o),
(165,639,o),
(165,623,cs),
(165,445,l),
(165,436,o),
(172,435,o),
(184,445,c),
(437,634,l),
(450,644,o),
(448,668,o),
(425,668,c),
(389,668,l),
(389,701,l),
(638,701,l),
(638,658,l),
(547,658,l),
(442,571,o),
(233,422,o),
(233,396,c),
(309,396,o),
(510,63,o),
(582,63,cs),
(603,63,o),
(682,55,o),
(682,28,c),
(682,9,o),
(682,0,o),
(682,0,c),
(566,0,l),
(551,0,o),
(561,14,o),
(539,14,cs),
(447,14,o),
(303,236,o),
(180,359,cs)
);
}
);
width = 682;
}
);
unicode = 75;
},
{
glyphname = L;
lastChange = "2024-09-12 16:08:51 +0000";
layers = (
{
backgroundImage = {
imagePath = "/var/folders/dm/y5f64_1d1z9f1bpz4k10jcbh0000gn/T/TemporaryItems/NSIRD_screencaptureui_cBa2oU/Screenshot 2024-09-12 at 9.06.57 AM.png";
pos = (-72,-90);
scale = (11.3543,11.3543);
};
layerId = m01;
shapes = (
{
closed = 1;
nodes = (
(15,57,o),
(107,36,o),
(107,70,c),
(107,603,l),
(107,657,o),
(70,668,o),
(32,668,c),
(32,700,l),
(300,700,l),
(300,655,l),
(236,655,ls),
(204,655,o),
(197,639,o),
(197,623,cs),
(197,101,ls),
(197,77,o),
(205,44,o),
(232,44,cs),
(374,44,l),
(492,44,o),
(531,100,o),
(531,150,c),
(531,171,o),
(534,178,o),
(549,178,c),
(586,178,l),
(588,117,o),
(553,76,o),
(548,24,c),
(548,5,o),
(538,0,o),
(519,0,c),
(54,0,l),
(21,0,o),
(15,-1,o),
(15,19,cs)
);
}
);
width = 600;
}
);
unicode = 76;
},
{
glyphname = M;
lastChange = "2024-09-24 17:58:06 +0000";
layers = (
{
guides = (
{
pos = (399,-339);
}
);
layerId = m01;
shapes = (
{
closed = 1;
nodes = (
(701,650,cs),
(462,192,l),
(451,172,o),
(438,177,o),
(430,197,c),
(210,641,ls),
(203,655,o),
(208,655,o),
(216,655,cs),
(275,655,l),
(275,700,l),
(7,700,l),
(7,658,l),
(54,657,o),
(72,649,o),
(72,613,cs),
(72,70,l),
(47,40,o),
(0,47,o),
(0,19,cs),
(0,9,o),
(6,0,o),
(19,0,cs),
(233,0,l),
(233,33,ls),
(233,66,o),
(142,22,o),
(142,101,cs),
(142,563,l),
(410,53,l),
(429,13,o),
(439,13,o),
(458,53,c),
(715,565,ls),
(718,571,o),
(735,569,o),
(735,557,cs),
(735,101,ls),
(735,22,o),
(624,66,o),
(624,33,cs),
(624,0,l),
(878,0,ls),
(891,0,o),
(897,9,o),
(897,19,cs),
(897,67,o),
(825,33,o),
(825,70,c),
(825,603,ls),
(825,649,o),
(833,658,o),
(890,659,c),
(890,700,l),
(652,700,l),
(652,655,l),
(658,655,o),
(686,654,o),
(698,654,cs),
(701,654,o),
(702,652,o)
);
}
);
width = 897;
}
);
unicode = 77;
},
{
glyphname = N;
lastChange = "2024-09-24 17:55:01 +0000";
layers = (
{
layerId = m01;
shapes = (
{
closed = 1;
nodes = (
(704,641,o),
(709,646,o),
(718,646,c),
(780,646,l),
(780,701,l),
(552,701,l),
(552,655,l),
(589,654,o),
(642,641,o),
(642,616,c),
(642,270,ls),
(642,199,o),
(640,201,o),
(611,229,cs),
(194,639,ls),
(194,639,o),
(156,667,o),
(156,676,c),
(156,691,o),
(147,699,o),
(136,699,c),
(-8,699,l),
(-8,655,l),
(33,654,o),
(63,631,o),
(63,589,cs),
(63,80,l),
(63,44,o),
(-9,57,o),
(-9,29,cs),
(-9,19,o),
(-3,0,o),
(10,0,cs),
(254,0,l),
(254,43,ls),
(254,76,o),
(126,30,o),
(126,109,cs),
(126,532,l),
(126,565,o),
(124,584,o),
(143,565,cs),
(611,100,l),
(613,55,o),
(655,42,o),
(655,0,c),
(655,-20,o),
(703,-19,o),
(703,-1,c),
(704,631,l)
);
}
);
width = 771;
}
);
unicode = 78;
},
{
glyphname = O;
lastChange = "2024-09-24 17:53:48 +0000";
layers = (
{
guides = (
{
angle = 180;
pos = (388,350);
}
);
layerId = m01;
shapes = (
{
closed = 1;
nodes = (
(612,-12,o),
(768,141,o),
(765,351,cs),
(760,539,o),
(600,716,o),
(388,716,cs),
(205,716,o),
(22,567,o),
(22,351,cs),
(22,137,o),
(183,-12,o),
(387,-12,cs)
);
},
{
closed = 1;
nodes = (
(531,649,o),
(668,486,o),
(668,351,cs),
(668,166,o),
(583,65,o),
(387,65,cs),
(261,65,o),
(137,211,o),
(137,350,cs),
(137,538,o),
(222,649,o),
(388,649,cs)
);
}
);
width = 787;
},
{
associatedMasterId = m01;
backgroundImage = {
imagePath = "/Users/var/folders/7q/bf07_67d1tqgd7lc4nm4rxgw0000gn/T/TemporaryItems/NSIRD_screencaptureui_rmT1JD/Screenshot 2024-09-03 at 10.30.05 AM.png";
pos = (-80,-87);
scale = (4.2629,4.2629);
};
layerId = "2BDA9147-B845-42F4-A17E-F58D7A5D6E85";
name = background;
shapes = (
{
closed = 1;
nodes = (
(-2215,422,o),
(-2064,567,o),
(-1852,567,cs),
(-1630,567,o),
(-1480,383,o),
(-1480,186,cs),
(-1480,28,o),
(-1630,-166,o),
(-1852,-166,cs),
(-2064,-166,o),
(-2215,14,o),
(-2215,186,cs)
);
},
{
closed = 1;
nodes = (
(-2157,365,o),
(-2151,138,o),
(-2064,25,cs),
(-1930,-149,o),
(-1755,-131,o),
(-1646,-43,cs),
(-1564,23,o),
(-1543,264,o),
(-1621,362,cs),
(-1724,491,o),
(-1895,570,o),
(-2066,436,cs)
);
},
{
closed = 1;
nodes = (
(-708,56,o),
(-551,203,o),
(-551,398,cs),
(-551,592,o),
(-708,789,o),
(-902,789,cs),
(-1137,789,o),
(-1278,552,o),
(-1278,398,cs),
(-1278,203,o),
(-1097,56,o),
(-902,56,cs)
);
},
{
closed = 1;
nodes = (
(-1074,107,o),
(-1196,245,o),
(-1196,398,cs),
(-1196,511,o),
(-1074,738,o),
(-906,738,cs),
(-734,738,o),
(-640,504,o),
(-640,397,cs),
(-640,245,o),
(-712,107,o),
(-906,107,cs)
);
},
{
closed = 1;
nodes = (
(684,76,o),
(778,283,o),
(709,473,cs),
(640,663,o),
(435,762,o),
(251,695,cs),
(66,628,o),
(-27,420,o),
(42,230,cs),
(111,40,o),
(316,-58,o),
(500,9,cs)
);
},
{
closed = 1;
nodes = (
(335,-6,o),
(176,94,o),
(116,258,cs),
(57,421,o),
(114,600,o),
(265,655,cs),
(415,710,o),
(574,609,o),
(633,446,cs),
(693,282,o),
(636,104,o),
(485,49,cs)
);
}
);
width = 800;
}
);
unicode = 79;
},
{
glyphname = P;
lastChange = "2024-09-12 16:24:27 +0000";
layers = (
{
backgroundImage = {
imagePath = "/var/folders/dm/y5f64_1d1z9f1bpz4k10jcbh0000gn/T/TemporaryItems/NSIRD_screencaptureui_zfESDJ/Screenshot 2024-09-12 at 9.22.17 AM.png";
pos = (-33,-96);
scale = (11.3048,11.3048);
};
layerId = m01;
shapes = (
{
closed = 1;
nodes = (
(212,334,o),
(211,313,o),
(227,313,c),
(380,301,o),
(476,347,o),
(476,483,cs),
(476,630,o),
(342,660,o),
(233,645,c),
(217,644,o),
(213,634,o),
(213,612,c),
(212,339,l)
);
},
{
closed = 1;
nodes = (
(260,260,o),
(212,264,o),
(212,226,c),
(212,101,l),
(212,22,o),
(323,66,o),
(323,33,cs),
(323,0,l),
(59,0,ls),
(46,0,o),
(40,9,o),
(40,19,cs),
(40,47,o),
(87,40,o),
(112,70,c),
(112,603,l),
(112,637,o),
(85,638,o),
(47,638,c),
(47,685,ls),
(47,694,o),
(53,700,o),
(62,700,cs),
(136,703,o),
(211,703,o),
(285,700,c),
(408,702,o),
(590,654,o),
(590,483,cs),
(590,325,o),
(451,258,o),
(323,258,c)
);
}
);
width = 600;
}
);
unicode = 80;
},
{
glyphname = Q;
lastChange = "2024-09-12 18:26:39 +0000";
layers = (
{
backgroundImage = {
imagePath = "/var/folders/dm/y5f64_1d1z9f1bpz4k10jcbh0000gn/T/TemporaryItems/NSIRD_screencaptureui_v1uOjF/Screenshot 2024-09-12 at 9.19.58 AM.png";
pos = (-87,-398);
scale = (11.3017,11.3017);
};
guides = (
{
angle = 180;
pos = (375,350);
}
);
layerId = m01;
shapes = (
{
closed = 1;
nodes = (
);
},
{
closed = 1;
nodes = (
(548,649,o),
(655,516,o),
(655,351,cs),
(655,166,o),
(570,40,o),
(374,40,cs),
(218,40,o),
(134,211,o),
(134,350,cs),
(134,518,o),
(249,649,o),
(375,649,cs)
);
},
{
closed = 1;
nodes = (
(9,149,o),
(156,-11,o),
(336,-11,c),
(347,-87,o),
(422,-203,o),
(587,-201,cs),
(703,-199,l),
(703,-161,ls),
(703,-142,o),
(661,-134,o),
(640,-134,cs),
(505,-134,o),
(455,-78,o),
(439,-11,c),
(642,-11,o),
(775,141,o),
(772,351,cs),
(769,539,o),
(587,716,o),
(375,716,cs),
(212,716,o),
(9,547,o),
(9,351,cs)
);
}
);
width = 800;
}
);
unicode = 81;
},
{
glyphname = R;
lastChange = "2024-09-17 22:30:50 +0000";
layers = (
{
background = {
shapes = (
{
closed = 1;
nodes = (
(174,367,o),
(173,346,o),
(189,346,cs),
(362,346,o),
(436,384,o),
(436,500,cs),
(436,605,o),
(337,641,o),
(228,641,cs),
(195,641,o),
(176,624,o),
(176,591,cs),
(174,372,ls)
);
},
{
closed = 1;
nodes = (
(396,9,o),
(278,182,o),
(278,274,cs),
(278,285,o),
(274,286,o),
(266,286,cs),
(248,286,o),
(210,287,o),
(189,287,cs),
(173,287,o),
(174,274,o),
(174,266,c),
(174,101,ls),
(174,22,o),
(275,66,o),
(275,33,cs),
(275,0,l),
(31,0,ls),
(18,0,o),
(12,9,o),
(12,19,cs),
(12,47,o),
(84,31,o),
(84,70,cs),
(84,603,ls),
(84,657,o),
(57,668,o),
(19,668,c),
(19,685,ls),
(19,694,o),
(25,700,o),
(34,700,cs),
(108,703,o),
(183,703,o),
(257,700,c),
(337,700,o),
(535,671,o),
(535,500,cs),
(535,372,o),
(425,315,o),
(384,310,cs),
(344,305,o),
(468,48,o),
(556,48,cs),
(577,48,o),
(598,56,o),
(598,37,cs),
(598,18,o),
(598,0,o),
(598,0,c),
(508,0,l),
(504,0,o),
(495,9,o),
(487,9,cs)
);
}
);
};
guides = (
{
pos = (322,-278);
}
);
layerId = m01;
shapes = (
{
closed = 1;
nodes = (
(174,367,o),
(173,346,o),
(189,346,cs),
(362,346,o),
(436,384,o),
(436,500,cs),
(436,605,o),
(337,641,o),
(228,641,cs),
(195,641,o),
(176,624,o),
(176,591,cs),
(174,372,ls)
);
},
{
closed = 1;
nodes = (
(283,150,o),
(283,250,cs),
(283,297,o),
(174,301,o),
(174,246,cs),
(174,101,ls),
(174,22,o),
(275,66,o),
(275,33,cs),
(275,0,l),
(31,0,ls),
(18,0,o),
(12,9,o),
(12,19,cs),
(12,47,o),
(84,31,o),
(84,70,cs),
(84,603,ls),
(84,657,o),
(57,668,o),
(19,668,c),
(19,685,ls),
(19,694,o),
(25,700,o),
(34,700,cs),
(108,703,o),
(183,703,o),
(257,700,c),
(337,700,o),
(535,671,o),
(535,500,cs),
(535,372,o),
(427,314,o),
(384,307,cs),
(378,306,o),
(373,298,o),
(372,291,cs),
(364,204,o),
(478,48,o),
(556,48,cs),
(577,48,o),
(598,37,o),
(598,18,cs),
(598,0,o),
(574,-8,o),
(547,-8,cs),
(420,-8,o)
);
}
);
width = 610;
}
);
unicode = 82;
},
{
glyphname = S;
lastChange = "2024-09-17 22:29:36 +0000";
layers = (
{
background = {
shapes = (
{
closed = 1;
nodes = (
(52,8,o),
(77,14,o),
(93,14,cs),
(126,14,o),
(161,-9,o),
(237,-9,cs),
(390,-9,o),
(540,30,o),
(540,181,cs),
(540,437,o),
(152,386,o),
(152,532,cs),
(152,619,o),
(226,645,o),
(294,645,cs),
(352,645,o),
(410,627,o),
(410,599,c),
(410,565,o),
(451,578,o),
(452,521,c),
(457,516,o),
(464,514,o),
(472,514,cs),
(479,514,o),
(486,516,o),
(491,521,c),
(493,539,o),
(494,558,o),
(494,576,cs),
(494,612,o),
(485,715,o),
(450,715,cs),
(428,715,o),
(435,684,o),
(422,684,cs),
(420,684,o),
(418,685,o),
(414,687,c),
(395,699,o),
(362,710,o),
(294,710,c),
(169,710,o),
(52,647,o),
(52,500,cs),
(52,280,o),
(436,348,o),
(436,181,cs),
(436,96,o),
(356,60,o),
(273,60,cs),
(182,60,o),
(77,103,o),
(77,170,cs),
(77,202,o),
(64,216,o),
(35,216,cs),
(-35,216,o),
(52,102,o),
(52,26,cs)
);
}
);
};
guides = (
{
angle = 270;
pos = (237,202);
}
);
layerId = m01;
shapes = (
{
closed = 1;
nodes = (
(456,527,o),
(457,513,o),
(477,513,cs),
(512,513,o),
(495,715,o),
(450,715,cs),
(428,715,o),
(433,697,o),
(420,697,cs),
(408,697,o),
(402,710,o),
(294,710,c),
(169,710,o),
(52,647,o),
(52,500,cs),
(52,310,o),
(436,348,o),
(436,181,cs),
(436,96,o),
(356,60,o),
(273,60,cs),
(182,60,o),
(77,103,o),
(77,170,cs),
(77,202,o),
(64,216,o),
(35,216,cs),
(-35,216,o),
(52,102,o),
(52,26,cs),
(52,8,o),
(77,14,o),
(93,14,cs),
(126,14,o),
(161,-9,o),
(237,-9,cs),
(390,-9,o),
(540,30,o),
(540,181,cs),
(540,457,o),
(152,365,o),
(152,532,cs),
(152,619,o),
(226,645,o),
(294,645,cs),
(352,645,o),
(409,643,o),
(435,579,cs)
);
}
);
width = 556;
}
);
unicode = 83;
},
{
glyphname = T;
lastChange = "2024-09-17 22:07:17 +0000";
layers = (
{
guides = (
{
pos = (-217,750);
}
);
layerId = m01;
shapes = (
{
closed = 1;
nodes = (
(661,643,o),
(687,667,o),
(679,569,c),
(732,569,l),
(751,750,l),
(710,750,l),
(692,711,ls),
(685,695,o),
(642,700,o),
(631,700,c),
(111,700,l),
(95,700,o),
(81,695,o),
(81,728,cs),
(81,750,l),
(32,750,l),
(0,570,l),
(41,570,l),
(56,627,o),
(59,644,o),
(199,644,cs),
(311,644,o),
(334,659,o),
(334,553,cs),
(334,96,ls),
(334,21,o),
(212,86,o),
(212,19,cs),
(212,-7,o),
(281,0,o),
(281,0,cs),
(525,0,l),
(525,33,ls),
(525,66,o),
(424,22,o),
(424,101,cs),
(424,573,ls),
(424,604,o),
(421,643,o),
(463,643,cs)
);
}
);
width = 750;
}
);
unicode = 84;
},
{
glyphname = U;
lastChange = "2024-09-19 15:42:53 +0000";
layers = (
{
guides = (
{
pos = (-54,-30);
},
{
pos = (-54,-30);
},
{
angle = 270;
pos = (390,172);
}
);
layerId = m01;
shapes = (
{
closed = 1;
nodes = (
(672,601,l),
(672,623,o),
(673,655,o),
(639,655,cs),
(585,655,l),
(585,700,l),
(823,700,l),
(823,654,l),
(823,654,o),
(760,653,o),
(760,653,c),
(750,653,o),
(746,641,o),
(746,633,c),
(746,236,l),
(746,114,o),
(629,-14,o),
(412,-14,c),
(202,-14,o),
(83,94,o),
(83,169,cs),
(83,633,l),
(83,657,o),
(10,648,o),
(0,648,c),
(0,700,l),
(248,700,l),
(248,655,l),
(199,655,l),
(182,655,o),
(168,655,o),
(168,641,c),
(168,283,ls),
(168,118,o),
(293,59,o),
(412,59,c),
(581,59,o),
(663,129,o),
(665,267,cs)
);
}
);
width = 823;
}
);
unicode = 85;
},
{
glyphname = V;
lastChange = "2024-09-17 22:14:00 +0000";
layers = (
{
guides = (
{
pos = (572,633);
}
);
layerId = m01;
shapes = (
{
closed = 1;
nodes = (
(730,655,o),
(763,648,o),
(787,648,c),
(787,700,l),
(569,700,l),
(569,655,l),
(633,655,ls),
(640,655,o),
(644,653,o),
(644,649,cs),
(644,647,o),
(643,644,o),
(641,641,c),
(442,159,ls),
(436,144,o),
(423,141,o),
(414,159,cs),
(182,641,l),
(175,655,o),
(186,655,o),
(203,655,c),
(242,655,l),
(242,700,l),
(14,700,l),
(14,648,l),
(39,648,o),
(67,657,o),
(79,633,cs),
(377,18,ls),
(387,-2,o),
(399,-12,o),
(411,-12,cs),
(423,-12,o),
(436,-2,o),
(445,18,cs),
(720,633,ls)
);
}
);
width = 800;
}
);
unicode = 86;
},
{
glyphname = W;
lastChange = "2024-09-12 17:32:21 +0000";
layers = (
{
backgroundImage = {
imagePath = "/var/folders/dm/y5f64_1d1z9f1bpz4k10jcbh0000gn/T/TemporaryItems/NSIRD_screencaptureui_ZVWZLT/Screenshot 2024-09-12 at 9.55.19 AM.png";
pos = (-78,-119);
scale = (10.8095,10.8095);
};
layerId = m01;
shapes = (
{
closed = 1;
nodes = (
(687,644,o),
(706,648,o),
(732,648,c),
(732,700,l),
(544,700,l),
(544,645,l),
(567,645,ls),
(609,645,o),
(620,639,o),
(620,630,cs),
(620,626,o),
(618,621,o),
(615,616,c),
(522,434,l),
(521,432,o),
(520,432,o),
(519,434,c),
(436,616,ls),
(435,619,o),
(434,622,o),
(434,624,cs),
(434,635,o),
(443,645,o),
(457,645,cs),
(496,645,l),
(496,700,l),
(268,700,l),
(268,648,l),
(291,648,o),
(323,644,o),
(335,620,cs),
(469,353,l),
(471,350,o),
(471,348,o),
(469,345,c),
(376,166,ls),
(372,158,o),
(368,154,o),
(364,154,cs),
(360,154,o),
(356,158,o),
(351,166,c),
(157,641,l),
(150,655,o),
(161,655,o),
(178,655,cs),
(187,655,l),
(187,700,l),
(-11,700,l),
(-11,658,l),
(-1,658,o),
(27,665,o),
(40,641,c),
(322,18,ls),
(331,-2,o),
(336,-12,o),
(341,-12,cs),
(346,-12,o),
(350,-2,o),
(360,18,cs),
(494,296,l),
(497,301,o),
(500,304,o),
(503,304,cs),
(505,304,o),
(508,301,o),
(511,296,c),
(641,5,ls),
(646,-6,o),
(651,-13,o),
(657,-13,cs),
(664,-13,o),
(672,-4,o),
(682,18,c),
(947,620,l),
(959,642,o),
(988,648,o),
(1011,648,c),
(1011,700,l),
(803,700,l),
(803,655,l),
(847,654,ls),
(869,653,o),
(893,632,o),
(884,616,c),
(682,177,l),
(679,170,o),
(674,167,o),
(669,167,cs),
(663,167,o),
(656,173,o),
(651,182,c),
(557,380,l),
(555,383,o),
(554,387,o),
(554,390,cs),
(554,390,o),
(554,391,o),
(554,391,c),
(675,620,l)
);
}
);
width = 1000;
}
);
unicode = 87;
},
{
glyphname = X;
lastChange = "2024-09-12 17:32:06 +0000";
layers = (
{
backgroundImage = {
imagePath = "/var/folders/dm/y5f64_1d1z9f1bpz4k10jcbh0000gn/T/TemporaryItems/NSIRD_screencaptureui_zSoj6G/Screenshot 2024-09-12 at 10.09.52 AM.png";
pos = (-39,-56);
scale = (11.3228,11.3228);
};
layerId = m01;
shapes = (
{
closed = 1;
nodes = (
(599,23,o),
(493,67,o),
(493,28,cs),
(493,0,l),
(748,0,ls),
(761,0,o),
(768,4,o),
(768,14,cs),
(767,45,o),
(746,56,o),
(701,56,c),
(446,356,l),
(442,361,o),
(444,367,o),
(447,369,c),
(683,628,ls),
(697,643,o),
(714,655,o),
(735,655,cs),
(769,655,l),
(769,700,l),
(535,700,l),
(535,658,l),
(599,658,o),
(620,648,o),
(599,628,c),
(408,411,l),
(402,404,o),
(397,404,o),
(391,411,c),
(255,598,ls),
(233,628,o),
(231,653,o),
(285,653,c),
(285,700,l),
(31,700,l),
(31,650,l),
(65,650,ls),
(86,650,o),
(112,634,o),
(125,618,cs),
(332,349,l),
(336,342,o),
(337,340,o),
(333,333,c),
(86,73,ls),
(53,38,o),
(33,61,o),
(33,19,cs),
(33,6,o),
(41,0,o),
(41,0,c),
(267,0,l),
(267,33,l),
(267,73,o),
(140,28,o),
(202,107,c),
(353,285,l),
(365,295,o),
(378,295,o),
(390,285,c),
(536,102,ls)
);
}
);
width = 800;
}
);
unicode = 88;
},
{
glyphname = Y;
lastChange = "2024-09-19 16:29:26 +0000";
layers = (
{
guides = (
{
pos = (808,321);
}
);
layerId = m01;
shapes = (
{
closed = 1;
nodes = (
(672,623,ls),
(685,638,o),
(696,655,o),
(729,655,cs),
(763,655,l),
(763,700,l),
(529,700,l),
(529,658,l),
(603,658,o),
(615,632,o),
(595,610,c),
(388,392,l),
(226,598,l),
(195,638,o),
(212,653,o),
(266,653,c),
(266,700,l),
(12,700,l),
(12,650,l),
(46,650,l),
(84,650,o),
(92,631,o),
(102,618,c),
(320,326,l),
(320,70,l),
(320,33,o),
(208,92,o),
(208,19,cs),
(208,-1,o),
(254,0,o),
(267,0,cs),
(511,0,l),
(511,33,ls),
(511,66,o),
(410,22,o),
(410,101,cs),
(410,326,l)
);
}
);
width = 775;
}
);
unicode = 89;
},
{
glyphname = Z;
lastChange = "2024-09-17 22:28:32 +0000";
layers = (
{
layerId = m01;
shapes = (
{
closed = 1;
nodes = (
(588,647,o),
(573,612,o),
(555,591,cs),
(97,77,l),
(90,70,o),
(80,58,o),
(64,58,c),
(55,53,o),
(48,44,o),
(48,28,cs),
(48,0,o),
(56,0,o),
(56,0,c),
(645,-1,l),
(641,-14,o),
(653,-31,o),
(668,-31,cs),
(681,-31,o),
(681,-26,o),
(681,-16,cs),
(681,53,o),
(742,158,o),
(779,191,c),
(779,202,o),
(769,229,o),
(752,229,cs),
(720,229,o),
(710,188,o),
(682,139,cs),
(660,101,o),
(627,61,o),
(536,61,cs),
(297,62,ls),
(222,62,o),
(209,71,o),
(232,97,cs),
(667,591,ls),
(681,608,o),
(699,637,o),
(712,637,cs),
(722,637,o),
(732,650,o),
(732,667,cs),
(732,698,o),
(732,700,o),
(712,700,cs),
(146,700,l),
(150,713,o),
(128,720,o),
(113,720,cs),
(93,720,o),
(80,702,o),
(80,692,cs),
(80,623,o),
(59,541,o),
(22,508,c),
(22,497,o),
(32,470,o),
(49,470,cs),
(81,470,o),
(91,511,o),
(119,560,cs),
(140,596,o),
(170,643,o),
(228,647,c),
(555,647,l)
);
}
);
width = 800;
}
);
unicode = 90;
},
{
glyphname = a;
lastChange = "2024-09-19 17:57:51 +0000";
layers = (
{
layerId = m01;
shapes = (
{
closed = 1;
nodes = (
(407,500,o),
(188,469,o),
(188,393,cs),
(188,344,o),
(85,324,o),
(85,403,cs),
(85,465,o),
(175,514,o),
(259,514,cs),
(382,514,o),
(513,454,o),
(513,369,cs),
(513,101,ls),
(513,22,o),
(588,66,o),
(588,33,cs),
(588,0,l),
(374,0,ls),
(361,0,o),
(355,9,o),
(355,19,cs),
(355,47,o),
(407,34,o),
(407,70,c),
(407,184,ls),
(407,264,o),
(127,335,o),
(127,173,cs),
(127,47,o),
(305,23,o),
(305,111,cs),
(305,137,o),
(345,140,o),
(345,108,cs),
(345,27,o),
(276,-17,o),
(193,-17,cs),
(90,-17,o),
(13,45,o),
(13,134,cs),
(13,242,o),
(115,335,o),
(259,335,c),
(313,335,o),
(382,316,o),
(407,292,c)
);
}
);
width = 600;
}
);
unicode = 97;
},
{
glyphname = b;
lastChange = "2024-09-17 23:59:44 +0000";
layers = (
{
layerId = m01;
shapes = (
{
closed = 1;
nodes = (
(173,733,ls),
(173,788,o),
(252,726,o),
(250,772,cs),
(249,800,l),
(12,800,l),
(12,768,l),
(50,768,o),
(87,777,o),
(87,713,cs),
(87,70,ls),
(87,32,o),
(15,47,o),
(15,19,cs),
(15,9,o),
(21,0,o),
(34,0,cs),
(278,0,ls),
(469,0,o),
(550,143,o),
(550,252,cs),
(550,342,o),
(469,495,o),
(353,495,cs),
(265,495,o),
(198,444,o),
(173,404,c)
);
},
{
closed = 1;
nodes = (
(172,323,o),
(229,430,o),
(319,430,cs),
(402,430,o),
(442,326,o),
(442,233,cs),
(442,138,o),
(395,54,o),
(276,44,cs),
(229,40,o),
(173,54,o),
(173,101,c),
(173,282,l)
);
}
);
width = 556;
}
);
unicode = 98;
},
{
glyphname = c;
lastChange = "2024-09-17 22:46:08 +0000";
layers = (
{
backgroundImage = {
imagePath = "/var/folders/dm/y5f64_1d1z9f1bpz4k10jcbh0000gn/T/TemporaryItems/NSIRD_screencaptureui_O7Qfdk/Screenshot 2024-09-10 at 3.48.22 PM.png";
pos = (-453,-20);
scale = (3.5894,3.5894);
};
layerId = m01;
shapes = (
{
closed = 1;
nodes = (
(429,81,o),
(329,81,cs),
(205,81,o),
(117,135,o),
(117,263,cs),
(117,430,o),
(226,458,o),
(299,458,cs),
(348,458,o),
(397,437,o),
(397,407,cs),
(397,395,o),
(386,364,o),
(386,341,cs),
(386,327,o),
(390,317,o),
(404,317,cs),
(433,317,o),
(503,397,o),
(503,425,cs),
(503,442,o),
(491,460,o),
(473,470,cs),
(437,490,o),
(375,522,o),
(300,522,cs),
(173,522,o),
(10,435,o),
(10,263,cs),
(10,79,o),
(173,-5,o),
(301,-5,cs),
(404,-5,o),
(516,82,o),
(516,151,cs),
(516,172,o),
(506,180,o),
(493,180,cs),
(481,180,o),
(466,172,o),
(457,158,cs),
(436,124,o)
);
}
);
width = 526;
}
);
unicode = 99;
},
{
glyphname = d;
lastChange = "2024-09-19 02:30:57 +0000";
layers = (
{
background = {
shapes = (
{
closed = 1;
nodes = (
(383,374,o),
(316,425,o),
(228,425,cs),
(112,425,o),
(31,322,o),
(31,232,cs),
(31,93,o),
(92,0,o),
(303,0,cs),
(547,0,ls),
(560,0,o),
(566,9,o),
(566,19,cs),
(566,47,o),
(494,32,o),
(494,70,cs),
(494,713,ls),
(494,777,o),
(531,768,o),
(569,768,c),
(569,800,l),
(332,800,l),
(331,772,ls),
(329,726,o),
(408,788,o),
(408,733,cs),
(408,334,l)
);
},
{
closed = 1;
nodes = (
(408,101,l),
(408,54,o),
(352,44,o),
(305,44,cs),
(186,44,o),
(149,118,o),
(149,213,cs),
(149,306,o),
(209,360,o),
(262,360,cs),
(332,360,o),
(409,293,o),
(408,252,c)
);
}
);
};
layerId = m01;
shapes = (
{
closed = 1;
nodes = (
(384,444,o),
(317,495,o),
(229,495,cs),
(103,495,o),
(32,342,o),
(32,252,cs),
(32,143,o),
(113,0,o),
(304,0,cs),
(548,0,ls),
(561,0,o),
(567,9,o),
(567,19,cs),
(567,47,o),
(495,32,o),
(495,70,cs),
(495,713,ls),
(495,777,o),
(532,768,o),
(570,768,c),
(570,800,l),
(333,800,l),
(332,772,ls),
(330,726,o),
(409,788,o),
(409,733,cs),
(409,404,l)
);
},
{
closed = 1;
nodes = (
(409,101,l),
(409,54,o),
(353,40,o),
(306,44,cs),
(187,54,o),
(140,138,o),
(140,233,cs),
(140,326,o),
(168,424,o),
(251,424,cs),
(341,424,o),
(409,313,o),
(409,272,cs)
);
}
);
width = 600;
}
);
unicode = 100;
},
{
glyphname = e;
lastChange = "2024-09-18 00:00:03 +0000";
layers = (
{
layerId = m01;
shapes = (
{
closed = 1;
nodes = (
(448,97,o),
(387,68,o),
(335,68,cs),
(238,68,o),
(140,139,o),
(140,244,cs),
(140,272,o),
(147,285,o),
(174,285,c),
(426,285,l),
(474,285,o),
(502,341,o),
(502,373,c),
(502,449,o),
(405,512,o),
(289,512,cs),
(161,512,o),
(8,435,o),
(8,263,cs),
(8,79,o),
(158,-10,o),
(286,-10,cs),
(370,-10,o),
(528,49,o),
(528,119,cs),
(528,140,o),
(518,148,o),
(505,148,cs),
(493,148,o),
(479,139,o),
(469,126,cs)
);
},
{
closed = 1;
nodes = (
(375,370,o),
(365,357,o),
(354,353,cs),
(314,338,o),
(218,336,o),
(164,341,c),
(151,341,o),
(140,345,o),
(140,362,c),
(140,408,o),
(187,452,o),
(255,452,cs),
(302,452,o),
(375,435,o),
(375,395,cs)
);
}
);
width = 536;
}
);
unicode = 101;
},
{
glyphname = f;
lastChange = "2024-09-19 02:29:52 +0000";
layers = (
{
background = {
shapes = (
{
closed = 1;
nodes = (
(181,363,o),
(168,365,o),
(198,365,cs),
(342,365,l),
(342,420,l),
(179,420,l),
(181,522,l),
(181,700,o),
(493,800,o),
(521,739,c),
(521,686,o),
(559,683,o),
(582,683,cs),
(618,683,o),
(630,717,o),
(630,742,c),
(630,787,o),
(591,816,o),
(539,816,c),
(315,816,o),
(99,700,o),
(101,520,c),
(100,423,l),
(100,416,o),
(85,420,o),
(79,420,c),
(4,420,l),
(4,378,l),
(42,378,o),
(85,377,o),
(85,313,cs),
(85,70,ls),
(85,35,o),
(23,77,o),
(23,29,cs),
(23,19,o),
(29,0,o),
(42,0,cs),
(286,0,l),
(286,43,ls),
(286,76,o),
(181,22,o),
(181,101,cs),
(181,332,ls)
);
}
);
};
layerId = m01;
shapes = (
{
closed = 1;
nodes = (
(175,363,o),
(172,365,o),
(202,365,cs),
(306,365,l),
(306,410,l),
(183,410,l),
(185,522,ls),
(188,700,o),
(315,804,o),
(315,739,cs),
(315,686,o),
(353,683,o),
(376,683,cs),
(412,683,o),
(424,717,o),
(424,742,cs),
(424,787,o),
(385,816,o),
(333,816,cs),
(209,816,o),
(107,670,o),
(105,520,cs),
(104,423,l),
(104,411,o),
(104,410,o),
(83,410,c),
(8,410,l),
(8,378,l),
(66,378,o),
(89,377,o),
(89,313,cs),
(89,60,ls),
(89,25,o),
(27,67,o),
(27,19,cs),
(27,9,o),
(33,0,o),
(46,0,cs),
(290,0,l),
(290,33,ls),
(290,66,o),
(175,12,o),
(175,91,cs),
(175,332,ls)
);
}
);
width = 349;
}
);
unicode = 102;
},
{
glyphname = g;
lastChange = "2024-09-19 02:33:49 +0000";
layers = (
{
layerId = m01;
shapes = (
{
closed = 1;
nodes = (
(130,242,o),
(326,190,o),
(326,325,cs),
(326,449,o),
(130,487,o),
(130,385,cs)
);
},
{
closed = 1;
nodes = (
(113,-186,o),
(399,-163,o),
(399,-22,cs),
(399,90,o),
(113,67,o),
(113,-45,cs)
);
},
{
closed = 1;
nodes = (
(158,133,o),
(244,149,o),
(274,149,cs),
(414,149,o),
(479,82,o),
(479,-14,cs),
(479,-95,o),
(364,-214,o),
(223,-214,cs),
(109,-214,o),
(5,-150,o),
(5,-58,cs),
(5,25,o),
(90,5,o),
(90,56,cs),
(90,87,o),
(41,54,o),
(41,131,cs),
(41,202,o),
(87,218,o),
(87,241,cs),
(87,262,o),
(44,254,o),
(44,337,cs),
(44,422,o),
(122,505,o),
(228,505,cs),
(259,505,o),
(286,494,o),
(308,486,cs),
(324,480,o),
(343,479,o),
(343,496,cs),
(343,516,o),
(372,535,o),
(393,535,cs),
(413,535,o),
(436,513,o),
(436,493,cs),
(436,475,o),
(413,455,o),
(393,460,cs),
(380,463,o),
(374,457,o),
(374,446,cs),
(374,430,o),
(409,390,o),
(409,346,cs),
(409,285,o),
(363,180,o),
(242,180,cs),
(206,180,o),
(176,206,o),
(149,206,cs),
(97,206,o),
(120,114,o),
(142,125,cs)
);
}
);
width = 484;
}
);
unicode = 103;
},
{
glyphname = h;
lastChange = "2024-09-26 15:21:27 +0000";
layers = (
{
background = {
shapes = (
{
closed = 1;
nodes = (
(370,40,o),
(358,47,o),
(358,19,cs),
(358,9,o),
(364,0,o),
(377,0,cs),
(591,0,l),
(591,33,ls),
(591,66,o),
(496,12,o),
(496,101,c),
(498,243,ls),
(498,333,o),
(457,429,o),
(341,429,c),
(273,429,o),
(187,395,o),
(162,355,c),
(162,723,ls),
(162,754,o),
(175,755,o),
(215,755,cs),
(219,755,l),
(219,800,l),
(31,800,l),
(31,768,l),
(69,768,o),
(76,767,o),
(76,703,c),
(76,70,l),
(51,40,o),
(14,47,o),
(14,19,cs),
(14,9,o),
(20,0,o),
(33,0,cs),
(257,0,l),
(257,33,ls),
(257,66,o),
(172,22,o),
(172,101,cs),
(172,269,l),
(171,310,o),
(222,357,o),
(301,357,cs),
(390,357,o),
(395,306,o),
(395,243,c),
(395,70,l)
);
}
);
};
layerId = m01;
shapes = (
{
closed = 1;
nodes = (
(412,40,o),
(390,47,o),
(390,19,cs),
(390,9,o),
(396,0,o),
(409,0,cs),
(623,0,l),
(623,33,ls),
(623,66,o),
(548,22,o),
(548,101,c),
(550,243,ls),
(550,333,o),
(561,512,o),
(394,512,c),
(272,512,o),
(179,355,o),
(154,315,c),
(154,704,ls),
(154,730,o),
(169,736,o),
(179,736,cs),
(211,736,l),
(211,801,l),
(13,801,l),
(13,749,l),
(51,749,o),
(68,748,o),
(68,684,cs),
(68,70,ls),
(68,31,o),
(6,47,o),
(6,19,cs),
(6,9,o),
(12,0,o),
(25,0,cs),
(249,0,l),
(249,33,ls),
(249,66,o),
(164,22,o),
(164,101,cs),
(164,222,ls),
(164,263,o),
(294,427,o),
(354,427,cs),
(437,427,o),
(437,306,o),
(437,243,cs),
(437,70,l)
);
}
);
width = 629;
}
);
unicode = 104;
},
{
glyphname = i;
lastChange = "2024-09-17 22:46:43 +0000";
layers = (
{
layerId = m01;
shapes = (
{
closed = 1;
nodes = (
(170,423,ls),
(170,454,o),
(183,455,o),
(213,455,cs),
(217,455,l),
(217,500,l),
(29,500,l),
(29,468,l),
(67,468,o),
(84,467,o),
(84,403,c),
(84,70,l),
(59,40,o),
(12,47,o),
(12,19,cs),
(12,9,o),
(18,0,o),
(31,0,cs),
(275,0,l),
(275,33,ls),
(275,66,o),
(170,22,o),
(170,101,c)
);
},
{
closed = 1;
nodes = (
(137,614,o),
(180,636,o),
(180,700,cs),
(180,764,o),
(160,806,o),
(116,806,cs),
(72,806,o),
(51,764,o),
(51,700,cs),
(51,636,o),
(95,614,o),
(116,614,cs)
);
}
);
width = 287;
}
);
unicode = 105;
},
{
glyphname = j;
lastChange = "2024-09-20 17:02:49 +0000";
layers = (
{
background = {
shapes = (
{
closed = 1;
nodes = (
(440,423,ls),
(441,454,o),
(453,455,o),
(483,455,cs),
(487,455,l),
(487,500,l),
(269,500,l),
(269,468,l),
(307,468,o),
(344,467,o),
(344,403,c),
(340,14,ls),
(338,-155,o),
(219,-200,o),
(219,-130,cs),
(219,-115,o),
(204,-96,o),
(181,-96,cs),
(145,-96,o),
(133,-124,o),
(133,-149,c),
(133,-204,o),
(172,-218,o),
(244,-218,c),
(356,-218,o),
(427,-100,o),
(427,14,c)
);
}
);
};
layerId = m01;
shapes = (
{
closed = 1;
nodes = (
(217,423,ls),
(217,454,o),
(230,455,o),
(260,455,cs),
(264,455,l),
(264,500,l),
(46,500,l),
(46,468,l),
(84,468,o),
(121,467,o),
(121,403,c),
(121,14,ls),
(121,-155,o),
(8,-200,o),
(8,-130,cs),
(8,-105,o),
(-19,-96,o),
(-42,-96,cs),
(-68,-96,o),
(-80,-124,o),
(-80,-149,c),
(-80,-194,o),
(-41,-223,o),
(21,-223,cs),
(99,-223,o),
(149,-174,o),
(184,-106,cs),
(203,-69,o),
(212,19,o),
(212,54,cs)
);
},
{
closed = 1;
nodes = (
(179,614,o),
(222,636,o),
(222,700,cs),
(222,764,o),
(202,806,o),
(158,806,cs),
(114,806,o),
(93,764,o),
(93,700,cs),
(93,636,o),
(137,614,o),
(158,614,cs)
);
}
);
width = 274;
}
);
unicode = 106;
},
{
glyphname = k;
lastChange = "2024-09-19 15:54:34 +0000";
layers = (
{
backgroundImage = {
imagePath = "/var/folders/dm/y5f64_1d1z9f1bpz4k10jcbh0000gn/T/TemporaryItems/NSIRD_screencaptureui_9rh0K4/Screenshot 2024-09-19 at 8.45.56 AM.png";
pos = (-79,-76);
scale = (9.4608,9.4608);
};
guides = (
{
angle = 219.1903;
pos = (248,347);
}
);
layerId = m01;
shapes = (
{
closed = 1;
nodes = (
(168,179,l),
(168,101,ls),
(168,22,o),
(223,66,o),
(223,33,cs),
(223,0,l),
(29,0,ls),
(16,0,o),
(10,9,o),
(10,19,cs),
(10,47,o),
(57,40,o),
(82,70,c),
(82,683,ls),
(82,747,o),
(75,748,o),
(27,748,c),
(27,800,l),
(215,800,l),
(215,755,l),
(211,755,ls),
(171,755,o),
(158,734,o),
(158,703,cs),
(158,274,l),
(290,381,l),
(387,461,o),
(396,468,o),
(283,468,c),
(283,500,l),
(551,500,l),
(551,468,l),
(500,468,o),
(468,442,o),
(450,427,cs),
(294,300,l),
(468,102,ls),
(532,29,o),
(575,81,o),
(575,34,cs),
(575,1,l),
(567,1,o),
(325,2,o),
(324,2,c),
(314,2,o),
(314,34,o),
(330,34,c),
(402,34,o),
(399,48,o),
(381,71,cs),
(244,241,l)
);
}
);
width = 585;
}
);
unicode = 107;
},
{
glyphname = l;
lastChange = "2024-09-17 23:50:26 +0000";
layers = (
{
layerId = m01;
shapes = (
{
closed = 1;
nodes = (
(153,723,ls),
(153,754,o),
(166,755,o),
(176,755,cs),
(180,755,l),
(180,800,l),
(2,800,l),
(2,768,l),
(40,768,o),
(67,767,o),
(67,703,cs),
(67,60,ls),
(67,25,o),
(5,67,o),
(5,19,cs),
(5,9,o),
(11,0,o),
(24,0,cs),
(268,0,l),
(268,33,ls),
(268,66,o),
(153,22,o),
(153,101,cs)
);
}
);
width = 270;
}
);
unicode = 108;
},
{
glyphname = m;
lastChange = "2024-09-17 23:33:14 +0000";
layers = (
{
layerId = m01;
shapes = (
{
closed = 1;
nodes = (
(522,243,l),
(520,101,ls),
(520,22,o),
(595,66,o),
(595,33,cs),
(595,0,l),
(401,0,ls),
(388,0,o),
(352,-5,o),
(352,19,cs),
(352,47,o),
(384,50,o),
(409,80,c),
(409,243,ls),
(409,306,o),
(411,417,o),
(356,417,cs),
(296,417,o),
(175,263,o),
(176,222,cs),
(176,101,ls),
(176,22,o),
(251,66,o),
(251,33,cs),
(251,0,l),
(27,0,ls),
(14,0,o),
(8,9,o),
(8,19,cs),
(8,47,o),
(45,40,o),
(70,70,c),
(70,383,ls),
(70,447,o),
(53,448,o),
(15,448,c),
(15,500,l),
(213,500,l),
(213,435,l),
(181,435,ls),
(171,435,o),
(166,429,o),
(166,403,cs),
(166,337,l),
(182,362,o),
(298,502,o),
(396,502,cs),
(477,502,o),
(506,424,o),
(516,346,c),
(554,397,o),
(645,503,o),
(751,502,cs),
(870,502,o),
(877,333,o),
(876,243,cs),
(875,101,ls),
(875,22,o),
(950,66,o),
(950,33,cs),
(950,0,l),
(756,0,ls),
(743,0,o),
(707,-5,o),
(707,19,cs),
(707,47,o),
(739,50,o),
(764,80,c),
(764,243,ls),
(764,306,o),
(766,417,o),
(711,417,cs),
(622,417,o),
(544,308,o),
(522,249,c)
);
}
);
width = 958;
}
);
unicode = 109;
},
{
glyphname = n;
lastChange = "2024-09-17 22:43:11 +0000";
layers = (
{
anchors = (
{
name = "new anchor";
pos = (-128,838);
}
);
layerId = m01;
shapes = (
{
closed = 1;
nodes = (
(416,40,o),
(394,47,o),
(394,19,cs),
(394,9,o),
(400,0,o),
(413,0,cs),
(627,0,l),
(627,33,ls),
(627,66,o),
(552,22,o),
(552,101,c),
(554,243,ls),
(554,333,o),
(565,502,o),
(398,502,c),
(276,502,o),
(193,355,o),
(168,315,c),
(168,403,ls),
(168,429,o),
(173,435,o),
(183,435,cs),
(215,435,l),
(215,500,l),
(17,500,l),
(17,448,l),
(55,448,o),
(72,447,o),
(72,383,c),
(72,70,l),
(47,40,o),
(10,47,o),
(10,19,cs),
(10,9,o),
(16,0,o),
(29,0,cs),
(253,0,l),
(253,33,ls),
(253,66,o),
(178,22,o),
(178,101,cs),
(178,222,l),
(177,263,o),
(298,417,o),
(358,417,cs),
(441,417,o),
(441,306,o),
(441,243,c),
(441,70,l)
);
}
);
width = 637;
}
);
unicode = 110;
},
{
glyphname = o;
lastChange = "2024-09-19 02:29:04 +0000";
layers = (
{
guides = (
{
angle = 270;
pos = (330,249);
}
);
layerId = m01;
shapes = (
{
closed = 1;
nodes = (
(477,511,o),
(572,369,o),
(571,247,cs),
(570,117,o),
(468,-18,o),
(293,-18,cs),
(120,-18,o),
(10,117,o),
(10,248,c),
(10,369,o),
(99,511,o),
(293,511,c)
);
},
{
closed = 1;
nodes = (
(131,191,o),
(172,65,o),
(293,65,cs),
(414,65,o),
(450,165,o),
(448,248,cs),
(446,329,o),
(443,440,o),
(293,442,cs),
(143,444,o),
(131,332,o),
(131,248,cs)
);
}
);
width = 561;
}
);
unicode = 111;
},
{
glyphname = p;
lastChange = "2024-09-17 23:13:13 +0000";
layers = (
{
background = {
shapes = (
{
closed = 1;
nodes = (
(191,126,o),
(248,110,o),
(316,110,c),
(432,110,o),
(523,198,o),
(523,288,c),
(523,397,o),
(462,500,o),
(271,500,cs),
(27,500,ls),
(14,500,o),
(8,491,o),
(8,481,cs),
(8,453,o),
(80,468,o),
(80,430,c),
(80,-103,l),
(80,-167,o),
(63,-168,o),
(25,-168,c),
(25,-200,l),
(292,-200,l),
(293,-172,l),
(293,-126,o),
(166,-188,o),
(166,-133,cs),
(166,166,l)
);
},
{
closed = 1;
nodes = (
(166,399,l),
(166,446,o),
(222,456,o),
(269,456,c),
(388,456,o),
(415,382,o),
(415,287,cs),
(415,194,o),
(345,160,o),
(292,160,cs),
(232,160,o),
(165,197,o),
(166,238,c)
);
}
);
};
layerId = m01;
shapes = (
{
closed = 1;
nodes = (
(191,65,o),
(258,14,o),
(346,14,cs),
(462,14,o),
(533,167,o),
(533,257,cs),
(533,366,o),
(462,509,o),
(271,509,cs),
(27,509,ls),
(14,509,o),
(8,500,o),
(8,490,cs),
(8,462,o),
(80,477,o),
(80,439,cs),
(80,-114,ls),
(80,-167,o),
(63,-169,o),
(25,-169,c),
(25,-201,l),
(292,-201,l),
(293,-173,ls),
(295,-127,o),
(166,-189,o),
(166,-134,cs),
(166,105,l)
);
},
{
closed = 1;
nodes = (
(166,408,l),
(166,455,o),
(222,456,o),
(269,455,cs),
(388,452,o),
(425,371,o),
(425,276,cs),
(425,183,o),
(395,89,o),
(312,89,cs),
(222,89,o),
(165,186,o),
(166,227,c)
);
}
);
width = 543;
}
);
unicode = 112;
},
{
glyphname = q;
lastChange = "2024-09-17 22:44:32 +0000";
layers = (
{
background = {
shapes = (
{
closed = 1;
nodes = (
(378,-133,ls),
(378,-188,o),
(251,-126,o),
(251,-172,c),
(252,-200,l),
(519,-200,l),
(519,-168,l),
(481,-168,o),
(464,-167,o),
(464,-103,c),
(464,430,l),
(464,468,o),
(536,453,o),
(536,481,cs),
(536,491,o),
(530,500,o),
(517,500,cs),
(273,500,ls),
(82,500,o),
(21,397,o),
(21,288,c),
(21,198,o),
(112,110,o),
(228,110,c),
(296,110,o),
(353,126,o),
(378,166,c)
);
},
{
closed = 1;
nodes = (
(379,197,o),
(312,160,o),
(252,160,cs),
(199,160,o),
(129,194,o),
(129,287,cs),
(129,382,o),
(156,456,o),
(275,456,c),
(322,456,o),
(378,446,o),
(378,399,c),
(378,238,l)
);
}
);
};
layerId = m01;
shapes = (
{
closed = 1;
nodes = (
(377,-134,ls),
(377,-189,o),
(248,-127,o),
(250,-173,cs),
(251,-201,l),
(518,-201,l),
(518,-169,l),
(480,-169,o),
(463,-167,o),
(463,-114,cs),
(463,439,ls),
(463,477,o),
(535,462,o),
(535,490,cs),
(535,500,o),
(529,509,o),
(516,509,cs),
(272,509,ls),
(81,509,o),
(10,366,o),
(10,257,cs),
(10,167,o),
(81,14,o),
(197,14,cs),
(285,14,o),
(352,65,o),
(377,105,c)
);
},
{
closed = 1;
nodes = (
(378,186,o),
(321,89,o),
(231,89,cs),
(148,89,o),
(118,183,o),
(118,276,cs),
(118,371,o),
(155,452,o),
(274,455,cs),
(321,456,o),
(377,455,o),
(377,408,c),
(377,227,l)
);
}
);
width = 545;
}
);
unicode = 113;
},
{
glyphname = r;
lastChange = "2024-09-12 18:21:03 +0000";
layers = (
{
layerId = m01;
shapes = (
{
closed = 1;
nodes = (
(187,395,o),
(279,422,o),
(279,379,cs),
(279,351,o),
(306,345,o),
(334,345,cs),
(364,345,o),
(392,398,o),
(392,423,cs),
(392,460,o),
(371,500,o),
(334,500,cs),
(282,500,o),
(204,440,o),
(166,355,c),
(166,423,ls),
(166,454,o),
(179,455,o),
(209,455,cs),
(213,455,l),
(213,500,l),
(25,500,l),
(25,468,l),
(63,468,o),
(80,467,o),
(80,403,cs),
(80,70,l),
(55,40,o),
(8,47,o),
(8,19,cs),
(8,9,o),
(14,0,o),
(27,0,cs),
(271,0,l),
(271,33,ls),
(271,66,o),
(166,22,o),
(166,101,cs),
(166,281,l)
);
}
);
width = 400;
}
);
unicode = 114;
},
{
glyphname = s;
lastChange = "2024-09-20 17:00:06 +0000";
layers = (
{
layerId = m01;
shapes = (
{
closed = 1;
nodes = (
(118,90,o),
(175,61,o),
(233,61,cs),
(291,61,o),
(360,91,o),
(360,152,cs),
(360,284,o),
(38,184,o),
(38,356,cs),
(38,464,o),
(153,514,o),
(261,514,cs),
(355,514,o),
(443,475,o),
(443,403,cs),
(443,381,o),
(407,350,o),
(377,349,cs),
(357,348,o),
(342,352,o),
(342,368,cs),
(342,425,o),
(278,459,o),
(220,459,cs),
(174,459,o),
(133,437,o),
(133,386,cs),
(133,260,o),
(468,388,o),
(468,166,cs),
(468,45,o),
(346,-13,o),
(228,-13,cs),
(117,-13,o),
(8,39,o),
(8,137,cs),
(8,171,o),
(38,209,o),
(69,209,cs),
(76,209,o),
(96,209,o),
(110,209,cs),
(131,209,o),
(118,168,o),
(118,147,cs)
);
}
);
width = 476;
}
);
unicode = 115;
},
{
glyphname = t;
lastChange = "2024-09-17 22:40:25 +0000";
layers = (
{
layerId = m01;
shapes = (
{
closed = 1;
nodes = (
(191,403,ls),
(191,434,o),
(194,435,o),
(224,435,cs),
(318,435,l),
(318,490,l),
(198,490,l),
(198,749,l),
(184,754,o),
(170,756,o),
(157,756,cs),
(141,756,o),
(115,754,o),
(100,749,c),
(100,505,l),
(100,490,o),
(100,490,o),
(86,490,c),
(10,490,l),
(10,448,l),
(78,448,o),
(95,447,o),
(95,383,cs),
(95,60,ls),
(95,15,o),
(158,-14,o),
(212,-12,cs),
(252,-11,o),
(315,13,o),
(315,75,cs),
(315,107,o),
(283,104,o),
(282,78,cs),
(281,33,o),
(193,44,o),
(191,91,c)
);
}
);
width = 328;
}
);
unicode = 116;
},
{
glyphname = u;
lastChange = "2024-09-17 23:59:33 +0000";
layers = (
{
layerId = m01;
shapes = (
{
closed = 1;
nodes = (
(194,475,o),
(251,435,o),
(251,483,cs),
(251,502,o),
(251,502,o),
(232,502,cs),
(8,502,l),
(8,469,ls),
(8,436,o),
(83,480,o),
(83,401,c),
(81,259,ls),
(81,169,o),
(70,-10,o),
(237,-10,cs),
(359,-10,o),
(442,147,o),
(467,187,c),
(467,99,ls),
(467,73,o),
(462,67,o),
(452,67,cs),
(420,67,l),
(420,2,l),
(658,2,l),
(658,54,l),
(620,54,o),
(563,55,o),
(563,119,c),
(563,432,ls),
(563,469,o),
(625,435,o),
(625,483,cs),
(625,502,o),
(625,502,o),
(606,502,cs),
(382,502,l),
(382,469,ls),
(382,436,o),
(457,480,o),
(457,401,cs),
(457,280,l),
(458,239,o),
(337,85,o),
(277,85,cs),
(194,85,o),
(194,196,o),
(194,259,cs),
(194,432,l)
);
}
);
width = 666;
}
);
unicode = 117;
},
{
glyphname = v;
lastChange = "2024-09-17 23:14:33 +0000";
layers = (
{
layerId = m01;
shapes = (
{
closed = 1;
nodes = (
(37,426,ls),
(25,448,o),
(4,448,o),
(-34,448,c),
(-34,500,l),
(234,500,l),
(234,435,l),
(220,435,o),
(205,436,o),
(193,436,cs),
(173,436,o),
(159,434,o),
(159,424,cs),
(159,421,o),
(160,418,o),
(162,415,cs),
(303,140,ls),
(314,120,o),
(327,124,o),
(334,140,cs),
(452,379,ls),
(460,396,o),
(464,409,o),
(464,418,cs),
(464,448,o),
(425,445,o),
(363,445,c),
(363,500,l),
(611,500,l),
(611,448,l),
(573,448,o),
(551,451,o),
(540,429,cs),
(329,0,ls),
(323,-13,o),
(310,-19,o),
(297,-19,cs),
(284,-19,o),
(271,-13,o),
(264,0,cs)
);
}
);
width = 600;
}
);
unicode = 118;
},
{
glyphname = w;
lastChange = "2024-09-12 18:46:52 +0000";
layers = (
{
backgroundImage = {
imagePath = "/var/folders/dm/y5f64_1d1z9f1bpz4k10jcbh0000gn/T/TemporaryItems/NSIRD_screencaptureui_2qKFPp/Screenshot 2024-09-12 at 11.36.40 AM.png";
pos = (-61,-74);
scale = (4.7282,4.7282);
};
layerId = m01;
shapes = (
{
closed = 0;
nodes = (
(462,221,l)
);
},
{
closed = 1;
nodes = (
(12,500,l),
(549,500,l),
(549,458,l),
(519,458,o),
(492,459,o),
(479,446,cs),
(466,433,o),
(475,418,o),
(477,415,cs),
(591,180,ls),
(601,160,o),
(615,165,o),
(622,180,cs),
(731,418,ls),
(744,446,o),
(718,445,o),
(639,445,c),
(639,500,l),
(887,500,l),
(887,448,l),
(849,448,o),
(820,451,o),
(809,429,cs),
(607,0,ls),
(603,-7,o),
(598,-19,o),
(587,-19,cs),
(577,-19,o),
(573,-8,o),
(569,0,cs),
(462,221,l),
(375,0,ls),
(370,-13,o),
(356,-19,o),
(343,-19,cs),
(330,-19,o),
(317,-13,o),
(310,0,cs),
(98,426,ls),
(87,448,o),
(50,448,o),
(12,448,c)
);
},
{
closed = 1;
nodes = (
(362,426,ls),
(334,483,o),
(213,482,o),
(213,432,cs),
(213,402,o),
(328,180,o),
(349,150,cs),
(363,129,o),
(372,135,o),
(380,150,cs),
(441,264,l)
);
}
);
width = 900;
}
);
unicode = 119;
},
{
glyphname = x;
lastChange = "2024-09-17 22:34:18 +0000";
layers = (
{
layerId = m01;
shapes = (
{
closed = 1;
nodes = (
(200,126,ls),
(171,98,o),
(176,55,o),
(200,54,cs),
(227,52,o),
(231,53,o),
(239,53,c),
(239,-2,l),
(11,-2,l),
(11,50,l),
(49,50,o),
(61,51,o),
(82,72,cs),
(258,249,l),
(91,432,ls),
(71,454,o),
(48,454,o),
(10,454,c),
(10,500,l),
(278,500,l),
(278,460,l),
(223,460,ls),
(210,460,o),
(216,435,o),
(221,430,cs),
(318,324,l),
(415,427,ls),
(421,434,o),
(420,459,o),
(401,459,cs),
(350,459,l),
(350,500,l),
(598,500,l),
(598,452,l),
(560,452,o),
(497,452,o),
(477,430,cs),
(349,289,l),
(546,74,ls),
(566,52,o),
(579,52,o),
(617,52,c),
(617,0,l),
(349,0,l),
(349,45,l),
(359,45,o),
(393,45,o),
(415,45,cs),
(428,45,o),
(429,64,o),
(419,75,cs),
(290,213,l)
);
}
);
width = 627;
}
);
unicode = 120;
},
{
glyphname = y;
lastChange = "2024-09-17 23:23:24 +0000";
layers = (
{
background = {
shapes = (
{
closed = 1;
nodes = (
(356,-149,o),
(124,-187,o),
(124,-117,cs),
(124,-92,o),
(98,-71,o),
(75,-71,cs),
(49,-71,o),
(29,-111,o),
(29,-136,cs),
(29,-181,o),
(68,-210,o),
(130,-210,cs),
(313,-210,o),
(441,-75,o),
(441,107,cs),
(442,429,l),
(467,459,o),
(504,452,o),
(504,480,cs),
(504,490,o),
(498,499,o),
(485,499,cs),
(281,499,l),
(281,466,ls),
(281,433,o),
(346,477,o),
(346,398,cs),
(346,230,ls),
(346,189,o),
(340,154,o),
(261,154,cs),
(172,154,o),
(163,193,o),
(163,256,cs),
(163,429,l),
(188,459,o),
(220,452,o),
(220,480,cs),
(220,490,o),
(214,499,o),
(201,499,cs),
(27,499,l),
(27,476,ls),
(27,443,o),
(82,497,o),
(82,408,c),
(80,256,ls),
(79,196,o),
(96,95,o),
(232,95,cs),
(300,95,o),
(331,99,o),
(356,139,c),
(356,116,ls)
);
}
);
};
guides = (
{
angle = 243.8298;
pos = (382,147);
}
);
layerId = m01;
shapes = (
{
closed = 1;
nodes = (
(584,429,ls),
(595,451,o),
(617,448,o),
(655,448,c),
(655,500,l),
(407,500,l),
(407,445,l),
(469,445,o),
(508,448,o),
(508,418,cs),
(508,409,o),
(504,396,o),
(496,379,cs),
(378,140,ls),
(371,124,o),
(358,120,o),
(347,140,cs),
(206,415,ls),
(204,418,o),
(203,421,o),
(203,424,cs),
(203,434,o),
(217,436,o),
(237,436,cs),
(249,436,o),
(264,435,o),
(278,435,c),
(278,500,l),
(10,500,l),
(10,448,l),
(48,448,o),
(69,448,o),
(81,426,cs),
(309,-2,l),
(243,-136,ls),
(232,-159,o),
(230,-96,o),
(177,-96,cs),
(151,-96,o),
(133,-142,o),
(133,-167,cs),
(133,-212,o),
(251,-249,o),
(279,-193,cs)
);
}
);
width = 665;
}
);
unicode = 121;
},
{
glyphname = z;
lastChange = "2024-09-12 19:53:55 +0000";
layers = (
{
backgroundImage = {
imagePath = "/var/folders/dm/y5f64_1d1z9f1bpz4k10jcbh0000gn/T/TemporaryItems/NSIRD_screencaptureui_UYr4fU/Screenshot 2024-09-12 at 12.47.03 PM.png";
pos = (-62,-65);
scale = (7.152,7.152);
};
layerId = m01;
shapes = (
{
closed = 1;
nodes = (
(91,500,l),
(61,500,o),
(78,532,o),
(50,532,cs),
(40,532,o),
(31,526,o),
(31,513,cs),
(31,339,l),
(54,339,ls),
(87,339,o),
(56,447,o),
(135,447,c),
(309,447,ls),
(327,447,o),
(332,434,o),
(326,428,cs),
(6,60,ls),
(-6,46,o),
(1,17,o),
(1,-1,c),
(411,-1,l),
(441,0,o),
(434,-13,o),
(462,-13,cs),
(472,-13,o),
(481,-7,o),
(481,6,cs),
(481,200,l),
(458,200,ls),
(425,200,o),
(458,68,o),
(360,68,c),
(181,68,ls),
(163,68,o),
(158,81,o),
(163,87,cs),
(474,455,ls),
(486,469,o),
(479,482,o),
(479,500,c)
);
}
);
width = 600;
}
);
unicode = 122;
},
{
glyphname = zero;
lastChange = "2024-09-19 15:05:51 +0000";
layers = (
{
guides = (
{
pos = (-645,111);
},
{
angle = 270;
pos = (285,63);
}
);
layerId = m01;
shapes = (
{
closed = 1;
nodes = (
(10,515,o),
(115,703,o),
(286,703,cs),
(477,703,o),
(571,515,o),
(572,331,cs),
(573,147,o),
(457,-3,o),
(283,-3,cs),
(105,-3,o),
(12,147,o),
(12,331,cs)
);
},
{
closed = 1;
nodes = (
(173,642,o),
(129,515,o),
(128,331,cs),
(127,145,o),
(173,63,o),
(285,63,cs),
(397,63,o),
(441,141,o),
(445,331,cs),
(449,515,o),
(397,646,o),
(285,644,cs)
);
}
);
width = 584;
}
);
unicode = 48;
},
{
glyphname = one;
lastChange = "2024-09-19 15:04:53 +0000";
layers = (
{
layerId = m01;
shapes = (
{
closed = 1;
nodes = (
(220,101,o),
(220,700,o),
(220,700,c),
(15,675,l),
(15,632,l),
(83,642,o),
(130,647,o),
(130,603,c),
(130,70,l),
(130,33,o),
(8,77,o),
(8,19,cs),
(8,-1,o),
(24,0,o),
(47,0,cs),
(321,0,l),
(321,33,ls),
(321,66,o),
(220,22,o),
(220,101,c)
);
}
);
width = 329;
}
);
unicode = 49;
},
{
glyphname = two;
lastChange = "2024-09-19 15:05:00 +0000";
layers = (
{
layerId = m01;
shapes = (
{
closed = 1;
nodes = (
(16,63,o),
(19,80,o),
(55,80,cs),
(127,80,o),
(420,237,o),
(425,501,cs),
(428,672,o),
(86,685,o),
(86,500,cs),
(86,434,o),
(145,428,o),
(145,456,cs),
(146,517,o),
(231,512,o),
(231,428,cs),
(231,382,o),
(186,339,o),
(140,339,cs),
(103,339,o),
(12,375,o),
(12,465,cs),
(12,585,o),
(104,699,o),
(273,700,cs),
(426,701,o),
(553,632,o),
(553,501,cs),
(553,338,o),
(379,207,o),
(237,115,cs),
(224,106,o),
(230,98,o),
(246,98,cs),
(325,98,o),
(347,98,o),
(426,98,c),
(511,98,o),
(500,136,o),
(562,136,c),
(562,111,o),
(569,0,o),
(526,0,cs),
(71,1,ls),
(35,1,o),
(17,8,o),
(17,25,c),
(16,46,l)
);
}
);
width = 574;
}
);
unicode = 50;
},
{
glyphname = three;
lastChange = "2024-09-19 15:05:08 +0000";
layers = (
{
backgroundImage = {
imagePath = "/var/folders/dm/y5f64_1d1z9f1bpz4k10jcbh0000gn/T/TemporaryItems/NSIRD_screencaptureui_3ELVGR/Screenshot 2024-09-18 at 7.37.01 PM.png";
pos = (-70,-94);
scale = (5.9052,5.9052);
};
layerId = m01;
shapes = (
{
closed = 1;
nodes = (
(299,417,o),
(424,383,o),
(424,245,cs),
(424,121,o),
(322,66,o),
(229,66,cs),
(152,66,o),
(81,104,o),
(81,174,cs),
(81,229,o),
(133,220,o),
(157,220,cs),
(179,220,o),
(199,242,o),
(199,284,cs),
(199,320,o),
(145,332,o),
(119,332,cs),
(82,332,o),
(12,310,o),
(12,220,cs),
(12,99,o),
(84,1,o),
(254,1,cs),
(406,1,o),
(552,120,o),
(552,250,cs),
(552,413,o),
(405,444,o),
(386,444,cs),
(379,444,o),
(377,454,o),
(383,454,cs),
(406,454,o),
(485,493,o),
(485,565,cs),
(485,657,o),
(413,712,o),
(285,712,cs),
(165,712,o),
(58,638,o),
(58,563,cs),
(58,533,o),
(75,518,o),
(92,518,cs),
(110,518,o),
(127,533,o),
(127,563,cs),
(127,605,o),
(201,636,o),
(267,636,cs),
(321,636,o),
(371,615,o),
(371,563,cs),
(372,496,o),
(289,470,o),
(237,470,cs),
(224,470,o),
(217,456,o),
(217,443,cs),
(217,430,o),
(224,417,o),
(237,417,cs)
);
}
);
width = 564;
}
);
unicode = 51;
},
{
glyphname = four;
lastChange = "2024-09-19 15:03:48 +0000";
layers = (
{
layerId = m01;
shapes = (
{
closed = 1;
nodes = (
(350,235,l),
(350,528,ls),
(350,545,o),
(332,548,o),
(316,528,cs),
(107,269,ls),
(95,254,o),
(91,235,o),
(119,235,cs)
);
},
{
closed = 1;
nodes = (
(440,174,l),
(440,101,ls),
(440,22,o),
(521,66,o),
(521,33,cs),
(521,0,l),
(297,0,ls),
(274,0,o),
(258,-1,o),
(258,19,cs),
(258,77,o),
(350,33,o),
(350,70,cs),
(350,174,l),
(22,174,ls),
(9,174,o),
(6,175,o),
(9,190,cs),
(17,238,l),
(383,686,ls),
(390,694,o),
(397,700,o),
(410,700,cs),
(440,700,l),
(440,225,l),
(518,225,ls),
(561,225,o),
(618,210,o),
(618,173,cs),
(618,141,o),
(603,124,o),
(571,124,cs),
(534,124,o),
(550,172,o),
(506,173,cs)
);
}
);
width = 626;
}
);
unicode = 52;
},
{
glyphname = five;
lastChange = "2024-09-19 15:03:54 +0000";
layers = (
{
layerId = m01;
shapes = (
{
closed = 1;
nodes = (
(429,615,o),
(464,636,o),
(501,651,cs),
(516,657,o),
(519,663,o),
(519,676,cs),
(519,702,l),
(109,700,ls),
(93,700,o),
(85,693,o),
(85,676,cs),
(85,468,ls),
(85,456,o),
(89,452,o),
(97,452,cs),
(299,452,o),
(432,428,o),
(435,264,cs),
(440,-17,o),
(114,12,o),
(114,137,cs),
(114,167,o),
(180,162,o),
(180,219,cs),
(180,265,o),
(146,296,o),
(100,296,cs),
(63,296,o),
(12,260,o),
(12,170,cs),
(12,50,o),
(150,-14,o),
(252,-14,cs),
(405,-14,o),
(563,113,o),
(563,264,cs),
(563,520,o),
(310,518,o),
(133,513,c),
(136,602,ls),
(136,611,o),
(143,615,o),
(151,615,cs),
(230,615,o),
(310,615,o),
(389,615,cs)
);
}
);
width = 575;
}
);
unicode = 53;
},
{
glyphname = six;
lastChange = "2024-09-19 15:05:23 +0000";
layers = (
{
backgroundImage = {
imagePath = "/var/folders/dm/y5f64_1d1z9f1bpz4k10jcbh0000gn/T/TemporaryItems/NSIRD_screencaptureui_6O1KRn/Screenshot 2024-09-18 at 7.46.52 PM.png";
pos = (-73,-84);
scale = (6.0679,6.0679);
};
layerId = m01;
shapes = (
{
closed = 1;
nodes = (
(578,89,o),
(455,-3,o),
(311,-3,cs),
(153,-3,o),
(12,167,o),
(12,331,cs),
(12,515,o),
(182,714,o),
(353,714,cs),
(455,714,o),
(549,668,o),
(549,627,cs),
(549,568,o),
(520,544,o),
(472,544,cs),
(412,544,o),
(422,646,o),
(328,646,c),
(216,644,o),
(140,515,o),
(139,331,cs),
(138,165,o),
(233,59,o),
(325,59,cs),
(427,59,o),
(455,122,o),
(459,252,cs),
(461,304,o),
(435,421,o),
(341,421,cs),
(302,421,o),
(264,416,o),
(230,393,cs),
(217,384,o),
(194,386,o),
(194,411,cs),
(194,447,o),
(263,489,o),
(333,489,cs),
(481,489,o),
(577,365,o),
(577,273,cs)
);
}
);
width = 589;
}
);
unicode = 54;
},
{
glyphname = seven;
lastChange = "2024-09-19 15:05:32 +0000";
layers = (
{
layerId = m01;
shapes = (
{
closed = 1;
nodes = (
(366,0,o),
(170,0,o),
(170,0,c),
(141,0,o),
(138,29,o),
(138,64,cs),
(138,282,o),
(342,536,o),
(403,586,cs),
(415,596,o),
(410,613,o),
(394,613,cs),
(315,613,o),
(196,613,o),
(117,613,c),
(32,613,o),
(92,511,o),
(12,511,c),
(12,536,o),
(12,701,o),
(55,701,cs),
(510,700,ls),
(546,700,o),
(554,693,o),
(554,676,c),
(557,617,o),
(540,650,o),
(494,613,cs),
(376,517,o),
(268,267,o),
(268,81,cs),
(268,74,o),
(278,62,o),
(294,62,cs),
(358,64,ls),
(366,64,o),
(371,59,o),
(370,50,cs),
(366,0,l)
);
}
);
width = 566;
}
);
unicode = 55;
},
{
glyphname = eight;
lastChange = "2024-09-19 15:19:11 +0000";
layers = (
{
guides = (
{
angle = -26.7888;
pos = (330,518);
}
);
layerId = m01;
shapes = (
{
closed = 1;
nodes = (
(166,532,o),
(297,495,o),
(376,495,cs),
(421,495,o),
(443,521,o),
(443,564,cs),
(443,611,o),
(361,657,o),
(286,657,cs),
(224,657,o),
(166,633,o),
(166,587,cs)
);
},
{
closed = 1;
nodes = (
(138,116,o),
(221,61,o),
(306,61,cs),
(396,61,o),
(489,122,o),
(489,246,cs),
(489,321,o),
(363,397,o),
(251,397,cs),
(178,397,o),
(138,292,o),
(138,223,cs)
);
},
{
closed = 1;
nodes = (
(147,452,o),
(56,473,o),
(56,556,cs),
(56,641,o),
(187,724,o),
(293,724,cs),
(382,725,o),
(551,677,o),
(551,576,cs),
(551,518,o),
(520,472,o),
(481,455,cs),
(472,451,o),
(474,443,o),
(486,440,cs),
(544,425,o),
(600,346,o),
(600,257,cs),
(600,156,o),
(535,-13,o),
(304,-13,cs),
(170,-13,o),
(8,84,o),
(8,226,cs),
(8,325,o),
(119,412,o),
(161,426,cs),
(173,430,o),
(177,433,o),
(163,442,cs)
);
}
);
width = 608;
}
);
unicode = 56;
},
{
glyphname = nine;
lastChange = "2024-09-19 15:05:43 +0000";
layers = (
{
layerId = m01;
shapes = (
{
closed = 1;
nodes = (
(11,622,o),
(134,714,o),
(278,714,cs),
(436,714,o),
(577,544,o),
(577,380,cs),
(577,196,o),
(407,-3,o),
(236,-3,cs),
(134,-3,o),
(40,43,o),
(40,84,cs),
(40,143,o),
(69,167,o),
(117,167,cs),
(177,167,o),
(167,65,o),
(261,65,c),
(373,67,o),
(449,196,o),
(450,380,cs),
(451,546,o),
(356,652,o),
(264,652,cs),
(162,652,o),
(134,589,o),
(130,459,cs),
(128,407,o),
(154,290,o),
(248,290,cs),
(287,290,o),
(325,295,o),
(359,318,cs),
(372,327,o),
(395,325,o),
(395,300,cs),
(395,264,o),
(326,222,o),
(256,222,cs),
(108,222,o),
(12,346,o),
(12,438,cs)
);
}
);
width = 589;
}
);
unicode = 57;
},
{
glyphname = period;
lastChange = "2024-09-19 15:58:28 +0000";
layers = (
{
layerId = m01;
shapes = (
{
closed = 1;
nodes = (
(92,-7,o),
(135,5,o),
(135,59,cs),
(135,113,o),
(115,145,o),
(71,145,cs),
(27,145,o),
(6,113,o),
(6,59,cs),
(6,5,o),
(50,-7,o),
(71,-7,cs)
);
}
);
width = 141;
}
);
unicode = 46;
},
{
glyphname = comma;
lastChange = "2024-09-19 16:07:27 +0000";
layers = (
{
backgroundImage = {
imagePath = "/var/folders/dm/y5f64_1d1z9f1bpz4k10jcbh0000gn/T/TemporaryItems/NSIRD_screencaptureui_Eo4l5I/Screenshot 2024-09-19 at 9.01.44 AM.png";
pos = (182,-217);
scale = (5.6038,5.6038);
};
layerId = m01;
shapes = (
{
closed = 1;
nodes = (
(293,13,o),
(298,-1,o),
(298,-19,cs),
(298,-101,o),
(228,-119,o),
(228,-148,cs),
(228,-158,o),
(233,-167,o),
(245,-167,cs),
(286,-167,o),
(352,-60,o),
(352,19,cs),
(352,60,o),
(335,91,o),
(294,91,cs),
(268,91,o),
(249,79,o),
(249,47,cs),
(249,15,o),
(269,13,o),
(282,13,cs)
);
}
);
width = 600;
}
);
unicode = 44;
},
{
glyphname = colon;
lastChange = "2024-09-19 16:00:47 +0000";
layers = (
{
guides = (
{
pos = (669,466);
}
);
layerId = m01;
shapes = (
{
closed = 1;
nodes = (
(92,-7,o),
(135,5,o),
(135,59,cs),
(135,113,o),
(115,145,o),
(71,145,cs),
(27,145,o),
(6,113,o),
(6,59,cs),
(6,5,o),
(50,-7,o),
(71,-7,cs)
);
},
{
closed = 1;
nodes = (
(92,357,o),
(135,369,o),
(135,423,cs),
(135,477,o),
(115,509,o),
(71,509,cs),
(27,509,o),
(6,477,o),
(6,423,cs),
(6,369,o),
(50,357,o),
(71,357,cs)
);
}
);
width = 600;
}
);
unicode = 58;
},
{
glyphname = semicolon;
lastChange = "2024-09-19 16:08:31 +0000";
layers = (
{
layerId = m01;
shapes = (
{
closed = 1;
nodes = (
(293,13,o),
(298,-1,o),
(298,-19,cs),
(298,-101,o),
(228,-119,o),
(228,-148,cs),
(228,-158,o),
(233,-167,o),
(245,-167,cs),
(286,-167,o),
(352,-60,o),
(352,19,cs),
(352,60,o),
(335,91,o),
(294,91,cs),
(268,91,o),
(249,79,o),
(249,47,cs),
(249,15,o),
(269,13,o),
(282,13,cs)
);
},
{
closed = 1;
nodes = (
(312,357,o),
(355,369,o),
(355,423,cs),
(355,477,o),
(335,509,o),
(291,509,cs),
(247,509,o),
(226,477,o),
(226,423,cs),
(226,369,o),
(270,357,o),
(291,357,cs)
);
}
);
width = 600;
}
);
unicode = 59;
},
{
glyphname = exclam;
lastChange = "2024-09-19 15:41:02 +0000";
layers = (
{
backgroundImage = {
imagePath = "/var/folders/dm/y5f64_1d1z9f1bpz4k10jcbh0000gn/T/TemporaryItems/NSIRD_screencaptureui_jCLY97/Screenshot 2024-09-19 at 8.20.17 AM.png";
pos = (-62,-58);
scale = (6.7191,6.7191);
};
layerId = m01;
shapes = (
{
closed = 1;
nodes = (
(110,-7,o),
(143,15,o),
(143,59,cs),
(143,83,o),
(123,115,o),
(79,115,cs),
(35,115,o),
(14,83,o),
(14,59,cs),
(14,15,o),
(48,-7,o),
(79,-7,cs)
);
},
{
closed = 1;
nodes = (
(8,684,o),
(37,710,o),
(66,710,cs),
(95,710,o),
(124,684,o),
(124,632,cs),
(124,582,o),
(92,397,o),
(96,236,cs),
(97,214,o),
(83,203,o),
(69,203,cs),
(55,203,o),
(41,214,o),
(41,236,cs),
(41,397,o),
(8,582,o),
(8,632,cs)
);
}
);
width = 151;
}
);
unicode = 33;
},
{
glyphname = exclamdown;
lastChange = "2024-09-19 15:57:34 +0000";
layers = (
{
guides = (
{
pos = (780,544);
}
);
layerId = m01;
shapes = (
{
closed = 1;
nodes = (
(48,543,o),
(14,521,o),
(14,477,cs),
(14,453,o),
(35,421,o),
(79,421,cs),
(123,421,o),
(143,453,o),
(143,477,cs),
(143,521,o),
(110,543,o),
(79,543,cs)
);
},
{
closed = 1;
nodes = (
(8,-46,o),
(41,139,o),
(41,300,cs),
(41,322,o),
(55,333,o),
(69,333,cs),
(83,333,o),
(97,322,o),
(96,300,cs),
(92,139,o),
(124,-46,o),
(124,-96,cs),
(124,-148,o),
(95,-174,o),
(66,-174,cs),
(37,-174,o),
(8,-148,o),
(8,-96,cs)
);
}
);
width = 151;
}
);
unicode = 161;
},
{
glyphname = question;
lastChange = "2024-09-19 16:20:24 +0000";
layers = (
{
backgroundImage = {
imagePath = "/var/folders/dm/y5f64_1d1z9f1bpz4k10jcbh0000gn/T/TemporaryItems/NSIRD_screencaptureui_9PlPAa/Screenshot 2024-09-19 at 9.10.03 AM.png";
pos = (0,-87);
scale = (6.9845,6.9845);
};
layerId = m01;
shapes = (
{
closed = 1;
nodes = (
(215,-7,o),
(248,15,o),
(248,59,cs),
(248,83,o),
(228,115,o),
(184,115,cs),
(140,115,o),
(119,83,o),
(119,59,cs),
(119,15,o),
(153,-7,o),
(184,-7,cs)
);
},
{
closed = 1;
nodes = (
(189,398,o),
(207,386,o),
(233,386,cs),
(282,386,o),
(346,437,o),
(346,538,cs),
(346,604,o),
(318,667,o),
(248,667,cs),
(182,667,o),
(151,589,o),
(179,588,cs),
(200,587,o),
(195,522,o),
(151,522,cs),
(105,522,o),
(82,547,o),
(82,593,cs),
(82,630,o),
(138,711,o),
(248,711,cs),
(378,711,o),
(440,646,o),
(441,547,cs),
(442,434,o),
(371,333,o),
(207,333,cs),
(200,333,o),
(200,333,o),
(200,323,cs),
(200,304,o),
(201,236,o),
(201,236,cs),
(201,198,o),
(154,198,o),
(153,236,cs),
(152,280,o),
(153,351,o),
(150,383,cs),
(149,391,o),
(159,398,o),
(173,398,cs)
);
}
);
width = 600;
}
);
unicode = 63;
},
{
glyphname = questiondown;
lastChange = "2024-09-19 16:20:52 +0000";
layers = (
{
layerId = m01;
shapes = (
{
closed = 1;
nodes = (
(309,511,o),
(276,489,o),
(276,445,cs),
(276,421,o),
(296,389,o),
(340,389,cs),
(384,389,o),
(405,421,o),
(405,445,cs),
(405,489,o),
(371,511,o),
(340,511,cs)
);
},
{
closed = 1;
nodes = (
(335,106,o),
(317,118,o),
(291,118,cs),
(242,118,o),
(178,67,o),
(178,-34,cs),
(178,-100,o),
(206,-163,o),
(276,-163,cs),
(342,-163,o),
(373,-85,o),
(345,-84,cs),
(324,-83,o),
(329,-18,o),
(373,-18,cs),
(419,-18,o),
(442,-43,o),
(442,-89,cs),
(442,-126,o),
(386,-207,o),
(276,-207,cs),
(146,-207,o),
(84,-142,o),
(83,-43,cs),
(82,70,o),
(153,171,o),
(317,171,cs),
(324,171,o),
(324,171,o),
(324,181,cs),
(324,200,o),
(323,268,o),
(323,268,cs),
(323,306,o),
(370,306,o),
(371,268,cs),
(372,224,o),
(371,153,o),
(374,121,cs),
(375,113,o),
(365,106,o),
(351,106,cs)
);
}
);
width = 600;
}
);
unicode = 191;
},
{
glyphname = bullet;
lastChange = "2024-09-19 17:53:11 +0000";
layers = (
{
guides = (
{
pos = (73,272);
}
);
layerId = m01;
shapes = (
{
closed = 1;
nodes = (
(102,191,o),
(149,205,o),
(149,265,cs),
(149,325,o),
(127,360,o),
(78,360,cs),
(29,360,o),
(6,325,o),
(6,265,cs),
(6,205,o),
(55,191,o),
(78,191,cs)
);
}
);
width = 155;
}
);
unicode = 8226;
},
{
glyphname = numbersign;
lastChange = "2024-09-19 18:23:21 +0000";
layers = (
{
guides = (
{
angle = 90;
pos = (668,258);
}
);
hints = (
{
horizontal = 1;
place = (-77,787);
type = Stem;
},
{
origin = (0,11);
target = (0,5);
type = Stem;
}
);
layerId = m01;
shapes = (
{
closed = 1;
nodes = (
(310,445,o),
(171,167,o),
(88,-2,cs),
(75,-28,o),
(33,-2,o),
(5,-2,c),
(134,253,o),
(327,632,o),
(362,700,cs),
(374,723,o),
(411,700,o),
(435,700,c)
);
},
{
closed = 1;
nodes = (
(544,445,o),
(405,167,o),
(322,-2,cs),
(309,-28,o),
(267,-2,o),
(239,-2,c),
(368,253,o),
(561,632,o),
(596,700,cs),
(608,723,o),
(645,700,o),
(669,700,c)
);
},
{
closed = 1;
nodes = (
(386,428,o),
(229,426,o),
(41,424,cs),
(12,423,o),
(16,472,o),
(4,497,c),
(290,498,o),
(561,498,o),
(637,498,cs),
(663,498,o),
(660,455,o),
(670,433,c)
);
},
{
closed = 1;
nodes = (
(386,213,o),
(232,212,o),
(43,209,cs),
(14,208,o),
(18,258,o),
(6,283,c),
(292,284,o),
(561,284,o),
(637,283,cs),
(663,283,o),
(660,240,o),
(670,218,c)
);
}
);
width = 600;
}
);
unicode = 35;
},
{
glyphname = slash;
lastChange = "2024-09-19 17:57:04 +0000";
layers = (
{
guides = (
{
pos = (16,-66);
}
);
layerId = m01;
shapes = (
{
closed = 1;
nodes = (
(340,445,o),
(172,103,o),
(89,-66,cs),
(76,-92,o),
(34,-66,o),
(6,-66,c),
(135,189,o),
(357,632,o),
(392,700,cs),
(404,723,o),
(441,700,o),
(465,700,c)
);
}
);
width = 471;
}
);
unicode = 47;
},
{
glyphname = backslash;
lastChange = "2024-09-19 17:57:14 +0000";
layers = (
{
layerId = m01;
shapes = (
{
closed = 1;
nodes = (
(30,700,o),
(67,723,o),
(79,700,cs),
(114,632,o),
(336,189,o),
(465,-66,c),
(437,-66,o),
(395,-92,o),
(382,-66,cs),
(299,103,o),
(131,445,o),
(6,700,c)
);
}
);
width = 471;
}
);
unicode = 92;
},
{
glyphname = ampersand.full;
lastChange = "2024-09-19 17:34:29 +0000";
layers = (
{
backgroundImage = {
imagePath = "/var/folders/dm/y5f64_1d1z9f1bpz4k10jcbh0000gn/T/TemporaryItems/NSIRD_screencaptureui_2eZkbW/Screenshot 2024-09-19 at 9.38.37 AM.png";
pos = (-116,-154);
scale = (7.0477,7.0477);
};
layerId = m01;
shapes = (
{
closed = 1;
nodes = (
(165,429,o),
(188,385,o),
(235,385,cs),
(268,385,o),
(279,432,o),
(279,464,cs),
(279,498,o),
(258,530,o),
(223,530,cs),
(188,530,o),
(165,503,o),
(165,469,cs)
);
},
{
closed = 1;
nodes = (
(90,141,o),
(146,108,o),
(208,108,cs),
(274,108,o),
(334,118,o),
(334,209,cs),
(334,263,o),
(254,311,o),
(172,311,cs),
(149,311,o),
(90,269,o),
(90,199,cs)
);
},
{
closed = 1;
nodes = (
(391,265,o),
(398,263,o),
(402,271,cs),
(410,289,o),
(496,412,o),
(510,434,cs),
(523,454,o),
(514,471,o),
(493,491,cs),
(490,494,o),
(475,506,o),
(503,506,cs),
(624,506,ls),
(638,506,o),
(656,489,o),
(640,475,cs),
(561,407,o),
(462,302,o),
(436,245,cs),
(421,213,o),
(419,176,o),
(436,142,cs),
(451,112,o),
(482,82,o),
(516,82,cs),
(580,82,o),
(600,113,o),
(600,142,cs),
(600,165,o),
(657,177,o),
(654,130,cs),
(649,53,o),
(574,7,o),
(492,7,cs),
(400,7,o),
(399,95,o),
(389,123,cs),
(383,139,o),
(372,133,o),
(367,123,cs),
(339,61,o),
(285,6,o),
(196,6,cs),
(98,6,o),
(8,98,o),
(8,201,cs),
(8,273,o),
(76,337,o),
(107,347,cs),
(116,350,o),
(130,358,o),
(120,365,cs),
(109,372,o),
(93,407,o),
(98,468,cs),
(103,530,o),
(166,589,o),
(243,589,cs),
(308,590,o),
(361,552,o),
(361,478,cs),
(361,436,o),
(340,385,o),
(312,380,cs),
(305,379,o),
(307,371,o),
(316,369,cs),
(351,360,o),
(383,316,o),
(390,274,cs)
);
}
);
width = 662;
}
);
unicode = 65286;
},
{
glyphname = at.full;
lastChange = "2024-09-19 18:17:09 +0000";
layers = (
{
guides = (
{
pos = (357,432);
}
);
layerId = m01;
shapes = (
{
closed = 1;
nodes = (
(448,143,ls),
(432,177,o),
(375,129,o),
(345,129,cs),
(166,129,o),
(96,246,o),
(96,433,cs),
(96,605,o),
(221,678,o),
(345,678,cs),
(476,678,o),
(606,645,o),
(606,434,cs),
(606,385,o),
(603,335,o),
(586,287,cs),
(566,230,o),
(530,229,o),
(530,286,cs),
(530,482,ls),
(530,544,o),
(434,587,o),
(345,587,cs),
(283,587,o),
(218,552,o),
(218,506,cs),
(218,449,o),
(293,463,o),
(293,499,cs),
(293,555,o),
(453,577,o),
(453,426,c),
(434,443,o),
(384,457,o),
(345,457,c),
(240,457,o),
(165,389,o),
(165,310,cs),
(165,245,o),
(221,200,o),
(297,200,cs),
(357,200,o),
(407,232,o),
(407,291,cs),
(407,315,o),
(378,313,o),
(378,294,cs),
(378,229,o),
(248,247,o),
(248,339,cs),
(248,457,o),
(453,405,o),
(453,347,cs),
(453,264,l),
(453,129,o),
(641,129,o),
(676,263,cs),
(691,319,o),
(696,377,o),
(696,434,cs),
(696,698,o),
(529,750,o),
(345,750,cs),
(153,750,o),
(6,666,o),
(6,434,cs),
(6,182,o),
(93,57,o),
(345,57,cs),
(398,57,o),
(498,35,o),
(482,70,cs)
);
}
);
width = 702;
}
);
unicode = 65312;
},
{
glyphname = hyphen;
lastChange = "2024-09-19 18:27:49 +0000";
layers = (
{
layerId = m01;
shapes = (
{
closed = 1;
nodes = (
(112,219,o),
(65,217,o),
(47,215,cs),
(18,212,o),
(22,263,o),
(10,288,c),
(36,289,o),
(197,289,o),
(213,289,cs),
(239,289,o),
(236,246,o),
(246,224,c)
);
}
);
width = 256;
}
);
unicode = 45;
},
{
glyphname = endash;
lastChange = "2024-09-19 18:31:40 +0000";
layers = (
{
layerId = m01;
shapes = (
{
closed = 1;
nodes = (
(358,217,o),
(61,215,o),
(43,213,cs),
(14,210,o),
(18,261,o),
(6,286,c),
(32,287,o),
(443,287,o),
(459,287,cs),
(485,287,o),
(482,244,o),
(492,222,c)
);
}
);
width = 498;
}
);
unicode = 8211;
},
{
glyphname = emdash;
lastChange = "2024-09-19 18:32:30 +0000";
layers = (
{
layerId = m01;
shapes = (
{
closed = 1;
nodes = (
(688,213,o),
(61,211,o),
(43,209,cs),
(14,206,o),
(18,257,o),
(6,282,c),
(32,283,o),
(773,283,o),
(789,283,cs),
(815,283,o),
(812,240,o),
(822,218,c)
);
}
);
width = 828;
}
);
unicode = 8212;
},
{
glyphname = quotedblleft;
lastChange = "2024-09-19 16:34:27 +0000";
layers = (
{
layerId = m01;
shapes = (
{
closed = 1;
nodes = (
(67,527,o),
(62,541,o),
(62,559,cs),
(62,641,o),
(132,659,o),
(132,688,cs),
(132,698,o),
(127,707,o),
(115,707,cs),
(74,707,o),
(8,600,o),
(8,521,cs),
(8,480,o),
(25,449,o),
(66,449,cs),
(92,449,o),
(111,461,o),
(111,493,cs),
(111,525,o),
(91,527,o),
(78,527,cs)
);
},
{
closed = 1;
nodes = (
(198,526,o),
(193,540,o),
(193,558,cs),
(193,640,o),
(263,658,o),
(263,687,cs),
(263,697,o),
(258,706,o),
(246,706,cs),
(205,706,o),
(139,599,o),
(139,520,cs),
(139,479,o),
(156,448,o),
(197,448,cs),
(223,448,o),
(242,460,o),
(242,492,cs),
(242,524,o),
(222,526,o),
(209,526,cs)
);
}
);
width = 271;
}
);
unicode = 8220;
},
{
glyphname = quotedblright;
lastChange = "2024-09-19 16:34:46 +0000";
layers = (
{
layerId = m01;
shapes = (
{
closed = 1;
nodes = (
(180,527,o),
(160,525,o),
(160,493,cs),
(160,461,o),
(179,449,o),
(205,449,cs),
(246,449,o),
(263,480,o),
(263,521,cs),
(263,600,o),
(197,707,o),
(156,707,cs),
(144,707,o),
(139,698,o),
(139,688,cs),
(139,659,o),
(209,641,o),
(209,559,cs),
(209,541,o),
(204,527,o),
(193,527,cs)
);
},
{
closed = 1;
nodes = (
(49,526,o),
(29,524,o),
(29,492,cs),
(29,460,o),
(48,448,o),
(74,448,cs),
(115,448,o),
(132,479,o),
(132,520,cs),
(132,599,o),
(66,706,o),
(25,706,cs),
(13,706,o),
(8,697,o),
(8,687,cs),
(8,658,o),
(78,640,o),
(78,558,cs),
(78,540,o),
(73,526,o),
(62,526,cs)
);
}
);
width = 271;
}
);
unicode = 8221;
},
{
glyphname = quoteleft;
lastChange = "2024-09-19 16:36:28 +0000";
layers = (
{
layerId = m01;
shapes = (
{
closed = 1;
nodes = (
(67,527,o),
(62,541,o),
(62,559,cs),
(62,641,o),
(132,659,o),
(132,688,cs),
(132,698,o),
(127,707,o),
(115,707,cs),
(74,707,o),
(8,600,o),
(8,521,cs),
(8,480,o),
(25,449,o),
(66,449,cs),
(92,449,o),
(111,461,o),
(111,493,cs),
(111,525,o),
(91,527,o),
(78,527,cs)
);
}
);
width = 140;
}
);
unicode = 8216;
},
{
glyphname = quoteright;
lastChange = "2024-09-19 16:36:42 +0000";
layers = (
{
layerId = m01;
shapes = (
{
closed = 1;
nodes = (
(49,527,o),
(29,525,o),
(29,493,cs),
(29,461,o),
(48,449,o),
(74,449,cs),
(115,449,o),
(132,480,o),
(132,521,cs),
(132,600,o),
(66,707,o),
(25,707,cs),
(13,707,o),
(8,698,o),
(8,688,cs),
(8,659,o),
(78,641,o),
(78,559,cs),
(78,541,o),
(73,527,o),
(62,527,cs)
);
}
);
width = 140;
}
);
unicode = 8217;
},
{
glyphname = ampersand;
lastChange = "2024-09-19 18:24:30 +0000";
layers = (
{
layerId = m01;
shapes = (
{
closed = 1;
nodes = (
(165,429,o),
(188,385,o),
(235,385,cs),
(268,385,o),
(279,432,o),
(279,464,cs),
(279,498,o),
(258,530,o),
(223,530,cs),
(188,530,o),
(165,503,o),
(165,469,cs)
);
},
{
closed = 1;
nodes = (
(90,141,o),
(146,108,o),
(208,108,cs),
(274,108,o),
(334,118,o),
(334,209,cs),
(334,263,o),
(254,311,o),
(172,311,cs),
(149,311,o),
(90,269,o),
(90,199,cs)
);
},
{
closed = 1;
nodes = (
(391,265,o),
(398,263,o),
(402,271,cs),
(410,289,o),
(496,412,o),
(510,434,cs),
(523,454,o),
(514,471,o),
(493,491,cs),
(490,494,o),
(475,506,o),
(503,506,cs),
(624,506,ls),
(638,506,o),
(656,489,o),
(640,475,cs),
(561,407,o),
(462,302,o),
(436,245,cs),
(421,213,o),
(419,176,o),
(436,142,cs),
(451,112,o),
(482,82,o),
(516,82,cs),
(580,82,o),
(600,113,o),
(600,142,cs),
(600,165,o),
(657,177,o),
(654,130,cs),
(649,53,o),
(574,7,o),
(492,7,cs),
(400,7,o),
(399,95,o),
(389,123,cs),
(383,139,o),
(372,133,o),
(367,123,cs),
(339,61,o),
(285,6,o),
(196,6,cs),
(98,6,o),
(8,98,o),
(8,201,cs),
(8,273,o),
(76,337,o),
(107,347,cs),
(116,350,o),
(130,358,o),
(120,365,cs),
(109,372,o),
(93,407,o),
(98,468,cs),
(103,530,o),
(166,589,o),
(243,589,cs),
(308,590,o),
(361,552,o),
(361,478,cs),
(361,436,o),
(340,385,o),
(312,380,cs),
(305,379,o),
(307,371,o),
(316,369,cs),
(351,360,o),
(383,316,o),
(390,274,cs)
);
}
);
width = 662;
}
);
unicode = 38;
},
{
glyphname = dollar;
lastChange = "2024-09-19 17:52:15 +0000";
layers = (
{
backgroundImage = {
imagePath = "../../../Screenshot 2024-09-19 at 10.35.06 AM.png";
pos = (-220,-309);
scale = (7.9431,7.9431);
};
layerId = m01;
shapes = (
{
closed = 1;
nodes = (
(69,181,o),
(82,197,o),
(103,197,cs),
(121,197,o),
(181,177,o),
(206,197,c),
(198,147,o),
(189,95,o),
(178,37,c),
(118,64,o),
(69,114,o),
(69,160,cs)
);
},
{
closed = 1;
nodes = (
(255,669,l),
(185,661,o),
(88,625,o),
(88,500,cs),
(88,422,o),
(152,382,o),
(227,351,c),
(215,252,l),
(204,290,o),
(167,300,o),
(118,300,cs),
(57,300,o),
(12,226,o),
(12,185,cs),
(12,112,o),
(62,24,o),
(171,-5,c),
(139,-168,ls),
(131,-209,o),
(187,-222,o),
(192,-179,cs),
(210,-12,l),
(222,-13,o),
(235,-14,o),
(248,-14,cs),
(299,-12,l),
(269,-168,ls),
(261,-209,o),
(317,-222,o),
(322,-179,cs),
(340,-8,l),
(453,9,o),
(540,61,o),
(540,181,cs),
(540,322,o),
(468,374,o),
(388,403,c),
(396,462,o),
(405,521,o),
(415,587,c),
(454,555,o),
(467,513,o),
(491,513,cs),
(516,513,o),
(504,593,o),
(423,639,c),
(448,783,ls),
(451,801,o),
(394,801,o),
(393,783,cs),
(385,656,l),
(360,665,o),
(332,670,o),
(299,671,c),
(318,783,ls),
(321,801,o),
(264,801,o),
(263,783,cs)
);
},
{
closed = 1;
nodes = (
(171,598,o),
(206,617,o),
(252,622,c),
(238,448,l),
(198,464,o),
(171,487,o),
(171,532,cs)
);
},
{
closed = 1;
nodes = (
(227,151,o),
(238,249,o),
(250,342,c),
(284,329,o),
(320,317,o),
(352,303,c),
(340,214,o),
(326,129,o),
(306,24,c),
(291,20,o),
(277,18,o),
(263,18,cs),
(247,18,o),
(230,20,o),
(214,25,c)
);
},
{
closed = 1;
nodes = (
(291,624,l),
(300,624,ls),
(334,624,o),
(360,618,o),
(381,608,c),
(376,533,o),
(370,469,o),
(364,411,c),
(329,422,o),
(294,429,o),
(263,439,c)
);
},
{
closed = 1;
nodes = (
(374,293,l),
(426,267,o),
(465,234,o),
(465,181,cs),
(465,122,o),
(408,67,o),
(345,38,c)
);
}
);
width = 552;
}
);
unicode = 36;
},
